<svg width="50" height="50" viewBox="0 0 50 50" fill="none" xmlns="http://www.w3.org/2000/svg">
<g clip-path="url(#clip0_63_1370)">
<path d="M23.1241 0H26.8311C27.2956 0.169042 28.3643 0.199566 28.922 0.281284C29.9194 0.435989 30.9053 0.657222 31.8731 0.943501C37.1709 2.45168 41.8215 5.66875 45.1014 10.094C47.6408 13.4997 49.2393 17.4587 49.8135 21.6478C49.8706 22.0644 49.8579 22.7015 50 23.076V26.9447L49.9858 26.9927C49.8833 27.3537 49.8105 28.2971 49.7505 28.7319C49.624 29.6944 49.4268 30.6464 49.1611 31.5801C47.3875 38.0387 43.1067 43.5208 37.2708 46.8072C34.9681 48.1062 32.4732 49.0303 29.8799 49.5444C29.3835 49.6455 27.4195 49.9019 27.1749 50H22.8744C22.6858 49.9224 20.5164 49.6123 20.0397 49.5156C17.7415 49.0415 15.5191 48.2546 13.4346 47.1769C7.477 44.1513 2.87046 38.4703 0.994233 32.0671C0.675332 30.9764 0.427372 29.8661 0.251904 28.7433C0.17722 28.2604 0.149574 27.3449 0 26.9287V23.1228C0.130785 22.8002 0.295562 20.9599 0.392122 20.4256C0.751685 18.5267 1.32416 16.6743 2.09869 14.9036C5.02895 8.24312 10.7198 3.19295 17.6814 1.07521C18.8826 0.718213 20.106 0.440667 21.3437 0.244369C21.828 0.162697 22.7371 0.166714 23.1241 0Z" fill="#7FC094"/>
<path d="M34.6295 7.48955C34.9138 7.50029 35.1652 7.54463 35.424 7.66396C35.6019 7.74438 35.7671 7.85039 35.9143 7.97866C36.5895 8.55883 37.2546 9.31362 37.9021 9.9396C38.9247 10.9283 39.9149 11.9669 40.9178 12.9753C42.4876 14.5536 40.7745 17.0457 38.698 16.0124C36.3939 18.5054 32.4886 20.0308 29.1337 19.322C28.4988 19.1878 27.8792 18.9927 27.2325 18.9001C25.7838 18.6929 24.5998 19.053 23.4192 17.9728C23.1145 17.6285 22.9854 17.3622 22.7902 16.9542C22.2803 17.5455 21.5318 18.2201 20.9576 18.77C20.496 19.2119 19.8928 19.4804 19.2374 19.432C18.6763 19.3896 18.1555 19.1242 17.7914 18.695C17.4191 18.2634 17.2359 17.7001 17.2832 17.132C17.3774 16.0349 18.5369 15.1625 19.3262 14.4159C20.0153 13.7639 21.8908 11.8512 22.6011 11.4697C23.0247 11.2439 23.4819 11.0874 23.955 11.0061C24.5678 10.9041 25.5636 10.9234 26.2144 10.9142L30.0404 10.87C31.2726 10.8571 31.8657 11.037 32.8625 10.2122C32.7929 9.99712 32.7384 9.81235 32.7156 9.58584C32.6637 9.09663 32.8127 8.60737 33.1286 8.23022C33.5327 7.74712 34.023 7.54839 34.6295 7.48955Z" fill="black"/>
<path d="M33.4618 10.926C33.6483 10.9813 37.4397 14.917 38.0086 15.3713C36.0516 17.5075 32.5652 18.9715 29.6867 18.4545C28.922 18.3171 28.1789 18.1082 27.4026 17.9651C26.0608 17.7177 23.7806 18.2778 23.6809 16.2747C23.6699 15.9693 24.4664 15.5303 24.7924 15.4364C25.6171 15.1991 29.8962 15.5268 30.3841 15.2078C30.4859 15.1415 30.5537 15.034 30.5699 14.9135C30.6461 14.378 30.1511 14.3689 29.7924 14.3655C28.1703 14.4239 25.7526 14.3027 24.2244 14.5897C23.4394 14.7373 20.88 17.7786 19.994 18.2923C18.6531 19.0696 17.7053 17.3689 18.5234 16.5244C19.5152 15.5004 20.6599 14.4932 21.6711 13.4746C23.2477 11.758 24.1454 11.87 26.3325 11.8437L30.2329 11.8107C31.724 11.7975 32.267 11.9318 33.4618 10.926Z" fill="#7FC094"/>
<path d="M34.4309 8.44858C34.6186 8.43852 34.8007 8.42963 34.9784 8.50136C35.4187 8.6792 40.3748 13.6481 40.5419 14.0798C40.6234 14.2904 40.6084 14.5527 40.5092 14.7547C40.3514 15.0762 40.0878 15.2171 39.7647 15.333C39.3655 15.3334 39.2338 15.2727 38.941 14.9901C37.3128 13.4189 35.7303 11.7946 34.1293 10.195C34.0094 10.0381 33.7521 9.82568 33.6798 9.6438C33.4401 9.04106 34.0378 8.63037 34.4309 8.44858Z" fill="#7FC094"/>
<path d="M18.3414 30.5377C19.2952 30.3958 20.8058 30.5933 21.7211 30.8813C23.9566 31.5848 26.0193 30.4251 27.138 33.0933C27.8405 32.3946 28.5689 31.6291 29.3303 30.9935C29.6287 30.7444 30.1246 30.5827 30.5145 30.5659C31.0929 30.5424 31.6563 30.7535 32.0768 31.1514C32.4889 31.5331 32.7278 32.0661 32.7385 32.6277C32.7544 33.3189 32.4269 33.9225 31.9189 34.388C30.5269 35.6637 29.1277 37.2029 27.654 38.368C26.6937 39.1272 25.1754 39.0824 24.0019 39.0961L21.7657 39.1175C20.8867 39.1305 18.6678 39.028 17.9591 39.2686C17.6248 39.382 17.3914 39.5842 17.1224 39.8043C17.7866 41.4449 16.3172 42.9008 14.6523 42.3839C14.5197 42.3428 14.0721 42.0045 13.9585 41.8938C12.3019 40.2791 10.6608 38.638 9.04794 36.9795C8.90077 36.7863 8.62557 36.4739 8.56351 36.2424C8.10399 34.5277 9.68915 33.165 11.2916 33.9923C13.165 32.0895 15.6604 30.7632 18.3414 30.5377Z" fill="black"/>
<path d="M18.5491 31.4654C19.9916 31.3512 21.2708 31.7813 22.6597 32.0284C24.4569 32.348 25.6621 31.6238 26.3626 33.778C26.0836 34.0702 25.7837 34.3873 25.3941 34.5245C24.3755 34.8833 20.0848 34.4113 19.5774 34.8283C19.4829 34.906 19.4371 35.0208 19.434 35.141C19.4307 35.2676 19.4652 35.3865 19.5596 35.476C19.8764 35.7765 21.3073 35.6005 21.7883 35.5977C22.8049 35.5917 24.8655 35.7008 25.7501 35.4136C27.1278 34.9663 29.3942 31.5333 30.629 31.5187C30.9385 31.5149 31.2338 31.6507 31.4493 31.8699C31.6656 32.0899 31.7963 32.3912 31.792 32.701C31.7852 33.1938 31.4797 33.4938 31.1527 33.8176L28.9087 35.9699C26.673 38.1198 26.8275 38.109 23.7623 38.1528L19.7185 38.1921C18.1584 38.2075 17.7593 38.0525 16.5042 39.1125C15.3953 37.9166 14.1635 36.7877 13.0291 35.6125C12.7098 35.2816 12.3385 34.9063 11.988 34.6151C13.9028 32.8016 15.9029 31.6865 18.5491 31.4654Z" fill="#7FC094"/>
<path d="M10.163 34.6734C10.7712 34.6526 10.9239 34.8539 11.3467 35.2752C12.6047 36.5291 13.8545 37.783 15.1125 39.0379C15.5095 39.4339 15.9756 39.8692 16.3054 40.3291C16.6114 40.8549 15.9867 41.3359 15.6293 41.5297C15.4592 41.5529 15.2765 41.5873 15.1098 41.5308C14.9371 41.4723 14.7892 41.3724 14.6519 41.254C14.0027 40.6946 9.67888 36.3994 9.46306 35.9313C9.37761 35.7459 9.38899 35.5007 9.46228 35.3133C9.58957 34.9878 9.85613 34.8091 10.163 34.6734Z" fill="#7FC094"/>
<path d="M14.6229 20.8133C15.4098 20.7894 16.2071 20.8001 16.9949 20.8003C21.0814 20.8017 25.1689 20.7912 29.2553 20.8039C29.4082 20.8043 29.9886 20.8708 30.0219 20.9604C30.2024 21.4469 30.1038 22.2424 30.1292 22.7779C30.1064 24.7426 30.1537 26.6772 30.1176 28.6373C30.1126 28.9117 30.0478 29.0113 29.8518 29.1703C29.8305 29.1723 29.8091 29.1742 29.7878 29.1759C29.1424 29.2282 28.1542 29.1997 27.4898 29.1995L23.4839 29.2009L18.0193 29.2016C17.536 29.2014 14.7399 29.2836 14.4639 29.0477C14.1697 28.217 14.4452 25.5068 14.3606 24.4933C14.2818 23.5502 14.3788 22.2673 14.367 21.292C14.3643 21.0774 14.461 20.9424 14.6229 20.8133Z" fill="black"/>
<path d="M17.4854 21.7269C18.5274 21.7657 19.7359 21.7383 20.7943 21.7383L26.9892 21.7357C27.0467 23.227 27.8976 23.4458 29.1964 23.4906C29.162 24.4052 29.1746 25.6011 29.197 26.5166C27.8909 26.5044 27.04 26.8236 26.9876 28.2701C23.9646 28.1905 20.5273 28.2472 17.4876 28.2744C17.373 26.7928 16.6747 26.5236 15.2866 26.5188C15.2964 25.5156 15.2865 24.4915 15.2859 23.4867C16.6049 23.432 17.4167 23.2218 17.4854 21.7269Z" fill="#7FC094"/>
<path d="M22.1852 22.1149C22.9794 22.0882 22.6384 22.6406 22.8355 22.9021C23.0486 23.0465 23.958 22.8093 23.817 23.4858C23.6453 24.3094 22.2971 23.6315 21.7496 24.0137C21.659 24.1798 21.6669 24.1137 21.6886 24.2737C21.9955 24.6502 23.2745 24.3312 23.6566 25.1438C24.0211 25.7423 23.8008 26.4933 23.1739 26.8196C22.3845 27.2303 23.0396 27.5306 22.2888 27.9269C22.2595 27.9159 22.2306 27.9039 22.2021 27.8908C21.6502 27.6371 21.9368 27.5584 21.7505 27.0476C21.3929 27.0299 20.8844 27.0287 20.6479 26.7258C20.6276 26.6551 20.6127 26.6008 20.632 26.5335C20.9086 25.7457 22.1271 26.2657 22.7358 26.0313C22.879 26.0033 22.852 25.5631 22.7667 25.5417C21.7555 25.2875 20.6316 25.5115 20.7589 23.9907C20.8157 23.3119 21.287 23.2163 21.7846 22.9294C21.9324 22.8441 21.7395 22.4533 22.1852 22.1149Z" fill="black"/>
<path d="M28.7446 27.4591C28.8854 27.4458 29.0165 27.4151 29.1301 27.4966C29.2375 27.6738 29.1915 28.0321 29.1877 28.2678L28.433 28.268C28.1546 28.2806 28.0791 28.3277 27.9141 28.0997C27.9386 27.63 28.3554 27.5128 28.7446 27.4591Z" fill="#7FC094"/>
<path d="M15.2918 27.44C15.9599 27.4606 16.5563 27.4294 16.546 28.2607L15.2864 28.271L15.2918 27.44Z" fill="#7FC094"/>
<path d="M15.2869 21.7324C15.575 21.7297 16.3464 21.6483 16.525 21.8556C16.5677 22.0886 16.4854 22.18 16.3499 22.3771C15.9852 22.5246 15.6719 22.5375 15.2876 22.5582L15.2869 21.7324Z" fill="#7FC094"/>
<path d="M27.9258 21.7358L29.1959 21.7346L29.1758 22.5561C28.4758 22.5095 27.9456 22.5784 27.9258 21.7358Z" fill="#7FC094"/>
</g>
<defs>
<clipPath id="clip0_63_1370">
<rect width="50" height="50" fill="white"/>
</clipPath>
</defs>
</svg>
