<svg width="80" height="80" viewBox="0 0 80 80" fill="none" xmlns="http://www.w3.org/2000/svg">
<g clip-path="url(#clip0_48_170)">
<path d="M40.0156 80.0312C62.1156 80.0312 80.0312 62.1156 80.0312 40.0156C80.0312 17.9156 62.1156 0 40.0156 0C17.9156 0 0 17.9156 0 40.0156C0 62.1156 17.9156 80.0312 40.0156 80.0312Z" fill="#48B02C"/>
<path d="M17.9773 30.0679H62.0228C62.7131 30.0679 63.3797 30.178 64.0005 30.3797V25.5263C64.0005 25.1739 63.8157 24.8366 63.5195 24.5782C63.1529 24.2588 62.6242 24.0599 62.0228 24.0599H37.9299C37.0478 24.0599 36.2905 23.8137 35.5771 23.295L32.1855 20.8284C31.4721 20.3097 30.7148 20.0631 29.8327 20.0631H17.9773C17.3759 20.0631 16.8473 20.262 16.4806 20.5813C16.1844 20.8397 15.9997 21.1771 15.9997 21.5295V30.3797C16.621 30.178 17.2871 30.0679 17.9773 30.0679ZM67.9992 35.5331V38.5534V58.47C67.9992 60.0238 67.2882 61.4204 66.1444 62.4172C65.0701 63.3536 63.6093 63.9352 62.0228 63.9352H17.9773C16.3909 63.9352 14.9306 63.3536 13.8558 62.4172C12.712 61.4204 12.001 60.0238 12.001 58.47V38.5534V35.5331V21.5295C12.001 19.9757 12.712 18.5791 13.8558 17.5823C14.9306 16.6459 16.3909 16.0643 17.9773 16.0643H19.6214H21.266H22.9101H24.5546H26.1987H27.8433H29.4874H29.8407C30.7167 16.0643 31.4688 16.3072 32.1793 16.8193L35.631 19.3067C36.3415 19.8183 37.0936 20.0612 37.9691 20.0612H62.0228C63.6093 20.0612 65.0701 20.6427 66.1444 21.5791C67.2882 22.576 67.9992 23.9725 67.9992 25.5263V35.5331ZM62.0228 34.0666H17.9773C17.3759 34.0666 16.8473 34.2655 16.4806 34.5849C16.1891 34.8391 16.0054 35.1702 15.9997 35.5165V38.5534V58.47C15.9997 58.8224 16.1844 59.1597 16.4806 59.4182C16.8473 59.7375 17.3759 59.9364 17.9773 59.9364H62.0228C62.6242 59.9364 63.1529 59.7375 63.5195 59.4182C63.8157 59.1597 64.0005 58.8224 64.0005 58.47V38.5534V35.5331C63.9948 35.1868 63.811 34.8391 63.5195 34.5849C63.1529 34.2655 62.6242 34.0666 62.0228 34.0666Z" fill="white"/>
</g>
<defs>
<clipPath id="clip0_48_170">
<rect width="80" height="80" fill="white"/>
</clipPath>
</defs>
</svg>
