<svg width="50" height="50" viewBox="0 0 50 50" fill="none" xmlns="http://www.w3.org/2000/svg">
<g clip-path="url(#clip0_63_1385)">
<path d="M23.266 0H26.6882C27.2296 0.185095 27.9594 0.144665 28.5389 0.22679C36.284 1.32438 43.431 6.20879 47.0878 13.2263C48.3071 15.5217 49.1606 17.9934 49.6177 20.5521C49.6948 20.9712 49.7607 21.36 49.8169 21.7813C49.8745 22.2073 49.8652 22.8875 50 23.2722V26.7768L49.9863 26.8243C49.8838 27.1873 49.7842 28.3541 49.7246 28.8068C49.5942 29.7444 49.4023 30.6724 49.1494 31.5848C47.384 38.0161 43.1312 43.4801 37.3302 46.7704C34.999 48.089 32.4713 49.0249 29.8435 49.542C29.3908 49.6313 27.2734 49.9229 27.0785 50H23.0053C22.8188 49.9321 20.8085 49.6572 20.3638 49.5684C17.8867 49.0957 15.4928 48.2604 13.2592 47.0896C7.27227 43.9102 2.83164 38.4375 0.953545 31.9241C0.65335 30.8775 0.420172 29.8129 0.255434 28.7366C0.179154 28.226 0.151628 27.3281 0 26.8764V23.1737C0.121853 22.8609 0.142557 22.029 0.191315 21.6636C0.238218 21.3122 0.295343 20.9926 0.360648 20.641C0.779194 18.2754 1.53358 15.9818 2.60095 13.8296C5.68428 7.625 11.2141 2.98626 17.8604 1.02904C19.0589 0.685742 20.2776 0.417169 21.5094 0.224874C22.032 0.142785 22.7977 0.173867 23.266 0Z" fill="#7FC094"/>
<path d="M13.2855 8.62993C16.4791 8.6957 19.8838 8.63642 23.0931 8.63613L25.5464 8.63349C26.5882 8.63237 27.5481 8.50376 28.4042 9.20371C29.5278 10.0884 29.2728 11.3727 29.317 12.6046C29.3685 14.0432 29.2115 15.6431 29.3392 17.0635C30.9018 18.5239 32.4734 20.0787 34.0116 21.5689L39.0223 26.4158L39.0221 35.4574C40.1076 36.014 39.9472 36.8807 39.9284 37.9199C40.5959 37.9095 41.5953 37.8222 42.0855 38.3339C42.8269 39.1137 42.6513 41.1562 41.3762 41.3073C40.5668 41.4033 39.6666 41.3653 38.8417 41.3652L34.0577 41.3612L22.1567 41.3629L18.5556 41.3634C17.8658 41.3634 17.2112 41.3668 16.5221 41.333C15.1077 41.2636 14.8644 39.1857 15.6689 38.3385C16.1688 37.8122 17.1436 37.9119 17.8165 37.9223L17.8076 37.2131C15.4434 37.2659 13.0513 37.1851 10.6841 37.2244C9.71404 37.2405 8.82767 37.1717 8.13489 36.3901C7.3036 35.4524 7.49461 34.1028 7.49739 32.9205L7.50203 29.3986L7.50169 19.7898C7.50169 18.0167 7.52542 16.1946 7.48904 14.4279C7.84276 13.9666 9.60203 12.2397 10.0942 11.7702C11.0105 10.896 12.3749 9.37959 13.2855 8.62993Z" fill="black"/>
<path d="M13.8753 9.51704C18.2367 9.59595 22.7141 9.43149 27.0781 9.55932C27.6171 9.5751 28.2871 10.1951 28.3641 10.7414C28.4718 11.5042 28.4316 12.3381 28.43 13.1218L28.4328 17.0163C27.8027 17.7026 26.6213 18.7826 25.9166 19.4632L21.1522 24.0689C20.5462 24.6534 19.2066 25.8767 18.716 26.451C18.6693 28.248 18.7213 30.3001 18.723 32.1167L18.7253 35.4537C18.2931 35.6908 18.0851 35.8838 17.885 36.3345L12.4126 36.3357C12.1289 36.3357 11.7489 36.3211 11.4753 36.3354C8.15374 36.5092 8.38152 35.5756 8.38694 32.7228L8.39304 28.7101L8.38997 15.0325C9.12532 15.0334 13.459 15.14 13.8039 14.8659C13.9535 14.4046 13.8786 10.1718 13.8753 9.51704Z" fill="#7FC094"/>
<path d="M15.8574 27.2221C16.3229 27.2094 17.1204 27.0739 17.347 27.5601C17.3459 27.7972 17.2735 28.0426 16.9936 28.0737C16.3402 28.1463 15.6633 28.1173 15.005 28.1143L11.9032 28.1131C11.6162 28.1165 10.7663 28.1827 10.5622 27.9607C10.3352 27.7138 10.4799 27.2594 10.8936 27.2379C11.4531 27.2089 12.0198 27.2213 12.5861 27.2223L15.8574 27.2221Z" fill="black"/>
<path d="M10.7156 30.9638C12.7105 30.8613 14.8854 31.0069 16.8898 30.9627C17.3735 30.9521 17.5248 31.534 17.0782 31.8129C17.0243 31.8181 16.9703 31.8224 16.9163 31.8257C15.2784 31.922 13.5045 31.7814 11.8547 31.8427C11.5085 31.8556 10.7808 31.8825 10.5246 31.6555C10.3505 31.3822 10.506 31.1468 10.7156 30.9638Z" fill="black"/>
<path d="M10.795 17.5042C12.2367 17.4502 13.9568 17.4796 15.4113 17.5298C15.7378 17.5411 15.9989 18.1214 15.4333 18.3681C14.2313 18.422 12.9947 18.3807 11.7974 18.3983C11.3259 18.4052 10.3023 18.5177 10.47 17.8033C10.5131 17.6196 10.6448 17.5655 10.795 17.5042Z" fill="black"/>
<path d="M18.2278 17.5008C19.7311 17.4924 21.341 17.4112 22.8231 17.5684C23.084 17.5961 23.0606 18.0175 22.9598 18.2204C22.8301 18.3544 22.7805 18.3503 22.5965 18.3757C22.0246 18.399 18.3001 18.4851 17.9719 18.312C17.8672 18.2567 17.794 18.154 17.7651 18.0404C17.7271 17.8913 17.7653 17.7692 17.8407 17.6409C17.9658 17.5277 18.0606 17.5274 18.2278 17.5008Z" fill="black"/>
<path d="M10.8068 23.5008C12.2301 23.4353 13.9813 23.4852 15.4171 23.5254C15.7561 23.5349 15.9629 24.1241 15.4448 24.3664C14.7835 24.3917 11.0711 24.4738 10.7041 24.3205C10.5946 24.2748 10.5031 24.1729 10.4674 24.0601C10.4322 23.9485 10.4609 23.8108 10.5139 23.708C10.5777 23.584 10.6844 23.5463 10.8068 23.5008Z" fill="black"/>
<path d="M10.7026 20.4634L13.6292 20.4476C14.0114 20.4457 15.3879 20.3312 15.6902 20.6453C15.8683 20.8302 15.7286 21.1485 15.5155 21.3116C15.1847 21.3496 14.7995 21.3355 14.4634 21.3376C13.3991 21.3441 12.331 21.347 11.2669 21.3466C11.0563 21.3465 10.6779 21.3489 10.5447 21.1727C10.3495 20.9145 10.4751 20.6275 10.7026 20.4634Z" fill="black"/>
<path d="M17.8881 20.4631C18.5882 20.4561 20.9514 20.3041 21.3978 20.658C21.5379 20.9194 21.4632 21.1331 21.2294 21.3044C20.438 21.4004 19.1524 21.3152 18.323 21.3444C18.1143 21.3518 17.7998 21.2631 17.6466 21.0926C17.5278 20.8153 17.6531 20.6115 17.8881 20.4631Z" fill="black"/>
<path d="M17.7415 23.4983C18.2911 23.4829 18.8678 23.4426 19.4121 23.5101C20.0007 23.583 20.0057 24.0969 19.5358 24.3668C18.987 24.3844 18.2636 24.4509 17.7386 24.3399C17.2465 24.2358 17.2354 23.6992 17.7415 23.4983Z" fill="black"/>
<path d="M23.777 27.0494C27.1284 27.101 30.6142 27.0539 33.9764 27.0527L33.9786 35.3593L23.7734 35.361C23.8116 32.6211 23.7765 29.7963 23.777 27.0494Z" fill="#7FC094"/>
<path d="M28.3238 27.385C28.9884 27.4205 28.9146 27.8078 28.9055 28.3334C29.3369 28.321 30.3955 28.1835 30.2311 28.9374C29.8143 29.4417 28.5163 29.1132 27.9508 29.2762C27.6612 29.3596 27.4956 29.8478 27.6353 30.1142C27.8035 30.4351 27.9605 30.4881 28.3067 30.4965C29.81 30.5328 30.6631 31.5231 30.038 32.978C29.8147 33.494 29.4159 33.6573 28.9052 33.8469C28.9188 34.2896 28.9645 34.4648 28.631 34.7733C27.9442 34.7452 28.0188 34.3866 28.0277 33.8353C27.8442 33.8401 26.1224 33.9938 26.8761 33.0486C27.1784 32.6696 29.3729 33.4371 29.3453 32.2763C29.3106 30.8159 27.7084 31.813 27.1142 30.9375C26.2105 29.7078 26.7237 28.904 27.9478 28.3001C28.1711 28.1898 27.8436 27.7829 28.3238 27.385Z" fill="black"/>
<path d="M28.8297 17.8562C29.1802 18.0034 36.4783 25.2336 37.4905 26.1562C34.7025 26.2206 31.7325 26.1701 28.9308 26.1697L20.2405 26.1703C21.9663 24.5471 23.6871 22.8575 25.392 21.2085C26.4957 20.141 27.7792 18.9512 28.8297 17.8562Z" fill="#7FC094"/>
<path d="M16.4667 38.8297C17.414 38.7759 18.7442 38.8158 19.717 38.8156L25.8678 38.8149L37.4655 38.813C38.6896 38.8131 40.0201 38.7873 41.2479 38.846C41.3308 38.8499 41.4944 39.0348 41.5323 39.1213C41.7156 39.5391 41.7067 40.224 41.2478 40.4567C40.7507 40.5004 39.9409 40.4786 39.4295 40.4785L36.2437 40.4774L26.0812 40.4762L19.571 40.4793C18.5725 40.4816 17.4711 40.5259 16.4882 40.4263C16.0471 40.3816 15.9043 39.16 16.4667 38.8297Z" fill="#7FC094"/>
<path d="M19.5769 36.2543C21.5324 36.2136 23.6272 36.2512 25.5919 36.2513L37.4448 36.2497C39.1788 36.2483 39.064 36.2098 39.057 37.9236L38.44 37.9204L18.6975 37.9248C18.7032 37.6674 18.6865 37.3829 18.687 37.1239C18.6883 36.3623 18.8951 36.2774 19.5769 36.2543Z" fill="#7FC094"/>
<path d="M36.8832 27.0467L38.1321 27.0531L38.1363 35.3561L36.8774 35.3619L36.8832 27.0467Z" fill="#7FC094"/>
<path d="M21.634 27.0485L22.8823 27.0537L22.8859 35.3546L21.6306 35.3621L21.634 27.0485Z" fill="#7FC094"/>
<path d="M34.8556 27.0478L35.9931 27.0531L35.9942 35.3581L34.8547 35.3626L34.8556 27.0478Z" fill="#7FC094"/>
<path d="M19.6073 27.048L20.7477 27.0519L20.7501 32.3232C20.7504 33.303 20.7728 34.3838 20.7371 35.3563L19.6016 35.3638C19.6445 34.5414 19.6092 33.3888 19.6094 32.5464L19.6073 27.048Z" fill="#7FC094"/>
<path d="M12.9355 10.2386C13.0694 10.3975 12.9989 13.6324 13.0052 14.1418C12.6645 14.1116 12.0304 14.1352 11.6663 14.1364L9.22949 14.1369C9.20493 14.1382 9.14209 14.1216 9.11426 14.1154C9.1499 13.9868 12.5633 10.6133 12.9355 10.2386Z" fill="#7FC094"/>
</g>
<defs>
<clipPath id="clip0_63_1385">
<rect width="50" height="50" fill="white"/>
</clipPath>
</defs>
</svg>
