<svg width="206" height="190" viewBox="0 0 206 190" fill="none" xmlns="http://www.w3.org/2000/svg">
<g opacity="0.8">
<path d="M83.7455 127.656H24.0248C21.0571 127.656 18.2665 126.368 16.4865 124.18L16.3577 124.02C12.5146 119.293 13.0231 112.676 17.5551 108.499C20.6451 105.649 21.8876 101.513 20.8254 97.6066C19.8211 93.9045 19.3126 90.1016 19.3126 86.2867V83.125C19.3126 65.0898 35.1649 50.4688 54.7188 50.4688C74.2727 50.4688 90.1251 65.0898 90.1251 83.125V87.3852C90.1251 90.4637 89.5875 93.5216 88.5318 96.4398C87.5146 99.2572 88.0586 102.357 89.9899 104.732C94.0712 109.752 95.0208 116.369 92.4941 122.194C91.0649 125.492 87.5983 127.656 83.7455 127.656Z" fill="#A8DBA8"/>
<path d="M74.0312 121.719H35.4062C22.9626 121.719 12.875 131.023 12.875 142.5V181.094H96.5625V142.5C96.5625 131.023 86.4749 121.719 74.0312 121.719Z" fill="#79BD9A"/>
<path d="M74.0313 121.719C70.4746 121.719 67.5938 119.062 67.5938 115.781V106.875H41.8438V115.781C41.8438 119.062 38.963 121.719 35.4063 121.719C33.1854 121.719 31.0449 122.028 29.0171 122.58C29.5063 132.014 37.9298 139.531 48.2813 139.531H61.1563C71.5078 139.531 79.9313 132.014 80.4205 122.58C78.3927 122.028 76.2522 121.719 74.0313 121.719Z" fill="white"/>
<path d="M48.2813 124.688C56.4923 124.688 63.6573 120.623 67.5938 114.57V106.875H41.8438V115.781C41.8438 119.062 38.963 121.719 35.4063 121.719C33.1854 121.719 31.0449 122.028 29.0171 122.58C29.5063 132.014 37.9298 139.531 48.2813 139.531V124.688Z" fill="#CFF09E"/>
<path d="M54.7188 118.75C42.2751 118.75 32.1875 109.446 32.1875 97.9688V80.1562C40.2923 80.1562 47.924 76.6353 52.7875 70.6562L54.7188 68.2812L56.65 70.6562C61.5135 76.6353 69.1452 80.1562 77.25 80.1562V97.9688C77.25 109.446 67.1624 118.75 54.7188 118.75Z" fill="white"/>
<path d="M56.65 70.6562L54.7188 68.2812L52.7875 70.6562C47.924 76.6353 40.2923 80.1562 32.1875 80.1562V97.9688C32.1875 109.446 42.2751 118.75 54.7188 118.75C61.4781 118.75 67.5262 115.992 71.6558 111.646C69.3673 112.373 66.9339 112.812 64.375 112.812C51.9313 112.812 41.8438 103.508 41.8438 92.0312V84.3244C46.1279 82.7212 49.9389 80.0969 52.7875 76.5937L54.7188 74.2188L56.65 76.5937C61.5135 82.5728 69.1452 86.0938 77.25 86.0938V80.1562C69.1452 80.1562 61.5135 76.6353 56.65 70.6562Z" fill="#CFF09E"/>
<path d="M164.156 86.0938H138.406C129.519 86.0938 122.312 79.4467 122.312 71.25C122.312 59.7728 132.4 50.4688 144.844 50.4688H157.719C170.162 50.4688 180.25 59.7728 180.25 71.25C180.25 79.4467 173.043 86.0938 164.156 86.0938Z" fill="#A8DBA8"/>
<path d="M170.594 121.719H131.969C119.525 121.719 109.438 131.023 109.438 142.5V181.094H193.125V142.5C193.125 131.023 183.037 121.719 170.594 121.719Z" fill="#79BD9A"/>
<path d="M164.156 124.688L151.281 133.594L138.406 124.688V106.875H164.156V124.688Z" fill="white"/>
<path d="M144.844 124.688C153.055 124.688 160.22 120.623 164.156 114.57V106.875H138.406V124.688L144.844 129.141V124.688Z" fill="#CFF09E"/>
<path d="M151.281 118.75C138.838 118.75 128.75 109.446 128.75 97.9688V80.1562C136.855 80.1562 144.486 76.6353 149.35 70.6562L151.281 68.2812L153.212 70.6562C158.076 76.6353 165.708 80.1562 173.812 80.1562V97.9688C173.812 109.446 163.725 118.75 151.281 118.75Z" fill="white"/>
<path d="M177.031 95H173.812V80.1562H180.25C183.807 80.1562 186.688 82.8133 186.688 86.0938C186.688 91.013 182.365 95 177.031 95Z" fill="white"/>
<path d="M128.75 95H125.531C120.198 95 115.875 91.013 115.875 86.0938C115.875 82.8133 118.756 80.1562 122.312 80.1562H128.75V95Z" fill="white"/>
<path d="M78.148 31.0413L103 53.963L127.852 31.0413C133.343 25.9766 133.343 17.768 127.852 12.7033C122.361 7.63861 113.461 7.63861 107.97 12.7033L103 17.2871L98.0302 12.7033C92.539 7.63861 83.6391 7.63861 78.148 12.7033C72.66 17.768 72.66 25.9766 78.148 31.0413Z" fill="#CFF09E"/>
<path d="M153.212 70.6562L151.281 68.2812L149.35 70.6562C144.486 76.6353 136.855 80.1562 128.75 80.1562V97.9688C128.75 109.446 138.838 118.75 151.281 118.75C158.041 118.75 164.089 115.992 168.218 111.646C165.93 112.373 163.496 112.812 160.938 112.812C148.494 112.812 138.406 103.508 138.406 92.0312V84.3244C142.69 82.7212 146.501 80.0969 149.35 76.5937L151.281 74.2188L153.212 76.5937C158.076 82.5728 165.708 86.0938 173.812 86.0938V80.1562C165.708 80.1562 158.076 76.6353 153.212 70.6562Z" fill="#CFF09E"/>
<path d="M177.031 83.125V80.1562H173.812V95H177.031C180.018 95 182.654 93.7234 184.425 91.7581C180.189 90.817 177.031 87.3228 177.031 83.125Z" fill="#CFF09E"/>
<path d="M125.531 83.125V80.1562H128.75V95H125.531C122.544 95 119.908 93.7234 118.138 91.7581C122.374 90.817 125.531 87.3228 125.531 83.125Z" fill="#CFF09E"/>
<path d="M131.969 181.094H74.0312V157.344C74.0312 149.147 81.238 142.5 90.125 142.5H115.875C124.762 142.5 131.969 149.147 131.969 157.344V181.094Z" fill="#A8DBA8"/>
<path d="M103 151.406C97.6665 151.406 93.3438 147.419 93.3438 142.5V136.562H112.656V142.5C112.656 147.419 108.333 151.406 103 151.406Z" fill="white"/>
<path d="M99.7812 148.438V145.202C105.166 144.367 109.769 141.467 112.656 137.429V136.562H93.3438V142.5C93.3438 146.419 96.1054 149.711 99.9197 150.902C99.8295 150.091 99.7812 149.269 99.7812 148.438Z" fill="#CFF09E"/>
<path d="M110.957 92.0312C101.491 92.0312 92.1529 89.9977 83.6876 86.0938L82.2263 87.8928C77.5237 93.673 78.1481 101.766 83.6876 106.875H122.313V102.505C122.313 96.7189 117.23 92.0312 110.957 92.0312Z" fill="#A8DBA8"/>
<path d="M103 139.531C92.3331 139.531 83.6875 131.557 83.6875 121.719V106.875H86.1466C90.5563 106.875 94.5894 104.577 96.5625 100.938C102.858 104.809 110.258 106.875 117.826 106.875H122.312V121.719C122.312 131.557 113.667 139.531 103 139.531Z" fill="white"/>
<path d="M117.826 106.875C110.258 106.875 102.862 104.809 96.5625 100.938C94.5894 104.577 90.5563 106.875 86.1466 106.875H83.6875V121.719C83.6875 131.557 92.3331 139.531 103 139.531C109.981 139.531 116.078 136.102 119.47 130.984C116.548 132.635 113.117 133.594 109.438 133.594C98.7706 133.594 90.125 125.62 90.125 115.781V112.139C92.8738 111.212 95.2074 109.372 96.5625 106.875C102.858 110.746 110.258 112.812 117.826 112.812H122.312V106.875H117.826Z" fill="#CFF09E"/>
<path d="M28.9688 145.469C27.192 145.469 25.75 146.799 25.75 148.438V181.094C25.75 182.732 27.192 184.062 28.9688 184.062C30.7455 184.062 32.1875 182.732 32.1875 181.094V148.438C32.1875 146.799 30.7455 145.469 28.9688 145.469Z" fill="#3B8686"/>
<path d="M44.1195 88.1926C44.6409 87.7146 45.4842 87.7146 46.0057 88.1926C46.6333 88.7715 47.4573 89.0625 48.2813 89.0625C49.1053 89.0625 49.9293 88.7715 50.557 88.1926C51.8155 87.0318 51.8155 85.1556 50.557 83.9948C47.5281 81.2012 42.597 81.2012 39.5682 83.9948C38.3096 85.1556 38.3096 87.0318 39.5682 88.1926C40.8267 89.3534 42.8609 89.3534 44.1195 88.1926Z" fill="#3B8686"/>
<path d="M63.432 88.1926C63.9534 87.7146 64.7967 87.7146 65.3182 88.1926C65.9458 88.7715 66.7698 89.0625 67.5938 89.0625C68.4178 89.0625 69.2418 88.7715 69.8695 88.1926C71.128 87.0318 71.128 85.1556 69.8695 83.9948C66.8406 81.2012 61.9095 81.2012 58.8807 83.9948C57.6221 85.1556 57.6221 87.0318 58.8807 88.1926C60.1392 89.3534 62.1735 89.3534 63.432 88.1926Z" fill="#3B8686"/>
<path d="M45.0625 97.9688C46.8402 97.9688 48.2812 96.6396 48.2812 95C48.2812 93.3604 46.8402 92.0312 45.0625 92.0312C43.2848 92.0312 41.8438 93.3604 41.8438 95C41.8438 96.6396 43.2848 97.9688 45.0625 97.9688Z" fill="#3B8686"/>
<path d="M64.375 97.9688C66.1527 97.9688 67.5938 96.6396 67.5938 95C67.5938 93.3604 66.1527 92.0312 64.375 92.0312C62.5973 92.0312 61.1562 93.3604 61.1562 95C61.1562 96.6396 62.5973 97.9688 64.375 97.9688Z" fill="#3B8686"/>
<path d="M63.432 106.005C64.6905 104.844 64.6905 102.968 63.432 101.807C62.1734 100.647 60.1392 100.647 58.8807 101.807C56.5857 103.924 52.8519 103.924 50.557 101.807C49.2984 100.647 47.2642 100.647 46.0057 101.807C44.7471 102.968 44.7471 104.844 46.0057 106.005C48.4069 108.223 51.5644 109.33 54.7188 109.33C57.8732 109.33 61.0308 108.223 63.432 106.005Z" fill="#3B8686"/>
<path d="M170.594 118.75H167.375V116.479C173.252 112.121 177.031 105.45 177.031 97.9688C184.132 97.9688 189.906 92.6428 189.906 86.0938C189.906 81.8069 186.604 78.2206 182.223 77.3775C183.021 75.4211 183.469 73.3638 183.469 71.25C183.469 58.1548 171.917 47.5 157.719 47.5H144.844C130.646 47.5 119.094 58.1548 119.094 71.25C119.094 73.3638 119.541 75.4211 120.339 77.3775C115.959 78.2206 112.656 81.8069 112.656 86.0938C112.656 87.2011 112.875 88.252 113.184 89.2703C112.453 89.1664 111.72 89.0625 110.957 89.0625C104.992 89.0625 99.0281 88.1748 93.3438 86.4975V83.125C93.3438 63.4808 76.0172 47.5 54.7188 47.5C33.4203 47.5 16.0938 63.4808 16.0938 83.125V86.2837C16.0938 90.3361 16.6345 94.3855 17.6999 98.325C18.4821 101.205 17.5551 104.298 15.2762 106.4C9.64981 111.589 9.00606 119.932 13.9114 125.964C14.3846 126.546 14.9447 127.06 15.5337 127.546C11.8675 131.694 9.65625 136.925 9.65625 142.5V181.094C9.65625 182.732 11.0983 184.062 12.875 184.062C14.6518 184.062 16.0938 182.732 16.0938 181.094V142.5C16.0938 135.85 20.2202 129.815 26.4452 126.777C28.8947 135.859 37.7624 142.5 48.2812 142.5H61.1562C70.6419 142.5 78.766 137.088 82.0685 129.366C83.71 133.175 86.5297 136.432 90.125 138.747V139.531C79.4742 139.531 70.8125 147.52 70.8125 157.344V181.094C70.8125 182.732 72.2545 184.062 74.0312 184.062C75.808 184.062 77.25 182.732 77.25 181.094V157.344C77.25 150.795 83.0244 145.469 90.125 145.469H90.5821C92.0208 150.575 97.0196 154.375 103 154.375C108.98 154.375 113.979 150.575 115.418 145.469H115.875C122.976 145.469 128.75 150.795 128.75 157.344V181.094C128.75 182.732 130.192 184.062 131.969 184.062C133.745 184.062 135.188 182.732 135.188 181.094V157.344C135.188 147.52 126.526 139.531 115.875 139.531V138.747C120.52 135.752 123.896 131.195 125.074 125.899C127.292 125.109 129.6 124.688 131.969 124.688H135.188C135.188 125.623 135.664 126.501 136.475 127.062L149.35 135.969C149.923 136.364 150.602 136.562 151.281 136.562C151.96 136.562 152.64 136.364 153.212 135.969L166.087 127.062C166.899 126.504 167.375 125.623 167.375 124.688H170.594C181.245 124.688 189.906 132.676 189.906 142.5V181.094C189.906 182.732 191.348 184.062 193.125 184.062C194.902 184.062 196.344 182.732 196.344 181.094V142.5C196.344 129.405 184.792 118.75 170.594 118.75ZM170.594 97.9688C170.594 107.792 161.932 115.781 151.281 115.781C140.63 115.781 131.969 107.792 131.969 97.9688V82.9558C139.494 82.1691 146.492 78.66 151.281 73.1975C156.071 78.657 163.068 82.1691 170.594 82.9558V97.9688ZM183.469 86.0938C183.469 89.3683 180.582 92.0312 177.031 92.0312V83.125H180.25C182.024 83.125 183.469 84.458 183.469 86.0938ZM144.844 53.4375H157.719C168.37 53.4375 177.031 61.4264 177.031 71.25C177.031 73.34 176.384 75.3587 175.209 77.1875H173.812C166.76 77.1875 160.02 74.0792 155.788 68.875L153.856 66.5C152.64 65.0037 149.923 65.0037 148.706 66.5L146.775 68.875C142.542 74.0792 135.802 77.1875 128.75 77.1875H127.353C126.178 75.3587 125.531 73.34 125.531 71.25C125.531 61.4264 134.193 53.4375 144.844 53.4375ZM122.312 83.125H125.531V92.0312C121.981 92.0312 119.094 89.3683 119.094 86.0938C119.094 84.458 120.539 83.125 122.312 83.125ZM119.094 102.505V103.906H117.822C110.867 103.906 104.133 102.027 98.3457 98.4675C97.5764 97.9925 96.6237 97.85 95.7321 98.0697C94.8405 98.2864 94.0937 98.8505 93.6785 99.6105C92.2462 102.259 89.3589 103.906 86.1466 103.906H85.1778C81.6178 99.8925 81.3378 94.0648 84.6853 89.8136C92.9157 93.2128 101.941 95 110.957 95C115.444 95 119.094 98.3666 119.094 102.505ZM35.4062 97.9688V82.9558C42.9317 82.1691 49.9292 78.66 54.7188 73.1975C59.5083 78.657 66.5058 82.1691 74.0312 82.9558V97.9688C74.0312 107.792 65.3696 115.781 54.7188 115.781C44.0679 115.781 35.4062 107.792 35.4062 97.9688ZM78.9077 106.035C79.3679 106.7 79.9055 107.317 80.4688 107.926V119.557C78.3476 119.05 76.191 118.75 74.0312 118.75C72.4895 118.75 71.2567 117.723 70.9445 116.387C74.5334 113.691 77.3015 110.12 78.9077 106.035ZM19.8275 110.598C23.6964 107.032 25.2704 101.778 23.9443 96.8852C23.0076 93.4206 22.5312 89.8552 22.5312 86.2837V83.125C22.5312 66.7553 36.9706 53.4375 54.7188 53.4375C72.4669 53.4375 86.9062 66.7553 86.9062 83.125V84.1997C86.3108 83.9473 85.7121 83.7069 85.1263 83.4397C83.7422 82.7984 82.0459 83.1666 81.1125 84.3125L80.4688 85.1052V80.1562C80.4688 78.5175 79.0267 77.1875 77.25 77.1875C70.1977 77.1875 63.4577 74.0792 59.225 68.875L57.2937 66.5C56.0771 65.0037 53.3604 65.0037 52.1438 66.5L50.2125 68.875C45.9798 74.0792 39.2398 77.1875 32.1875 77.1875C30.4107 77.1875 28.9688 78.5175 28.9688 80.1562V97.9688C28.9688 105.394 32.6864 112.029 38.493 116.387C38.1808 117.723 36.948 118.75 35.4062 118.75C32.9536 118.75 30.4977 119.08 28.1029 119.733C25.1996 120.525 22.5538 121.802 20.2009 123.405C19.7502 123.087 19.3254 122.725 18.9327 122.238C16.068 118.717 16.451 113.712 19.8275 110.598ZM61.1562 136.562H48.2812C40.6013 136.562 34.1928 131.593 32.6188 124.88C33.5458 124.753 34.476 124.688 35.4062 124.688C39.2527 124.688 42.5519 122.589 44.1033 119.581C47.3446 120.941 50.9335 121.719 54.7188 121.719C58.504 121.719 62.0929 120.941 65.3342 119.581C66.8856 122.589 70.1848 124.688 74.0312 124.688C74.9615 124.688 75.8917 124.753 76.8187 124.88C75.2447 131.593 68.8362 136.562 61.1562 136.562ZM103 148.438C99.4497 148.438 96.5625 145.775 96.5625 142.5V141.624C98.6032 142.188 100.763 142.5 103 142.5C105.237 142.5 107.397 142.188 109.438 141.624V142.5C109.438 145.775 106.55 148.438 103 148.438ZM119.094 121.719C119.094 129.904 111.874 136.562 103 136.562C94.1259 136.562 86.9062 129.904 86.9062 121.719V109.826C91.0874 109.633 94.9048 107.855 97.5281 104.96C103.721 108.163 110.674 109.844 117.822 109.844H119.094V121.719ZM131.969 118.75C129.777 118.75 127.63 119.035 125.531 119.54V102.505C125.531 100.875 125.168 99.3284 124.588 97.8827C124.904 97.9034 125.209 97.9688 125.531 97.9688C125.531 105.45 129.31 112.124 135.188 116.479V118.75H131.969ZM160.938 123.203L151.281 129.883L141.625 123.203V119.97C144.609 121.089 147.866 121.719 151.281 121.719C154.696 121.719 157.954 121.089 160.938 119.97V123.203Z" fill="#3B8686"/>
<path d="M177.031 145.469C175.255 145.469 173.812 146.799 173.812 148.438V181.094C173.812 182.732 175.255 184.062 177.031 184.062C178.808 184.062 180.25 182.732 180.25 181.094V148.438C180.25 146.799 178.808 145.469 177.031 145.469Z" fill="#3B8686"/>
<path d="M140.682 88.1926C141.203 87.7146 142.047 87.7146 142.568 88.1926C143.196 88.7715 144.02 89.0625 144.844 89.0625C145.668 89.0625 146.492 88.7715 147.119 88.1926C148.378 87.0318 148.378 85.1556 147.119 83.9948C144.091 81.2012 139.16 81.2012 136.131 83.9948C134.872 85.1556 134.872 87.0318 136.131 88.1926C137.389 89.3534 139.423 89.3534 140.682 88.1926Z" fill="#3B8686"/>
<path d="M155.443 83.9948C154.185 85.1556 154.185 87.0318 155.443 88.1926C156.702 89.3534 158.736 89.3534 159.994 88.1926C160.516 87.7146 161.359 87.7146 161.881 88.1926C162.508 88.7715 163.332 89.0625 164.156 89.0625C164.98 89.0625 165.804 88.7715 166.432 88.1926C167.691 87.0318 167.691 85.1556 166.432 83.9948C163.403 81.2012 158.472 81.2012 155.443 83.9948Z" fill="#3B8686"/>
<path d="M141.625 97.9688C143.403 97.9688 144.844 96.6396 144.844 95C144.844 93.3604 143.403 92.0312 141.625 92.0312C139.847 92.0312 138.406 93.3604 138.406 95C138.406 96.6396 139.847 97.9688 141.625 97.9688Z" fill="#3B8686"/>
<path d="M160.938 97.9688C162.715 97.9688 164.156 96.6396 164.156 95C164.156 93.3604 162.715 92.0312 160.938 92.0312C159.16 92.0312 157.719 93.3604 157.719 95C157.719 96.6396 159.16 97.9688 160.938 97.9688Z" fill="#3B8686"/>
<path d="M155.443 101.807C153.148 103.924 149.414 103.924 147.119 101.807C145.861 100.647 143.827 100.647 142.568 101.807C141.31 102.968 141.31 104.844 142.568 106.005C144.969 108.223 148.127 109.33 151.281 109.33C154.436 109.33 157.593 108.223 159.994 106.005C161.253 104.844 161.253 102.968 159.994 101.807C158.736 100.647 156.702 100.647 155.443 101.807Z" fill="#3B8686"/>
<path d="M151.281 148.438C153.059 148.438 154.5 147.108 154.5 145.469C154.5 143.829 153.059 142.5 151.281 142.5C149.504 142.5 148.062 143.829 148.062 145.469C148.062 147.108 149.504 148.438 151.281 148.438Z" fill="#3B8686"/>
<path d="M151.281 160.312C153.059 160.312 154.5 158.983 154.5 157.344C154.5 155.704 153.059 154.375 151.281 154.375C149.504 154.375 148.062 155.704 148.062 157.344C148.062 158.983 149.504 160.312 151.281 160.312Z" fill="#3B8686"/>
<path d="M100.724 56.0618C101.352 56.6408 102.176 56.9317 103 56.9317C103.824 56.9317 104.648 56.6408 105.276 56.0618L130.128 33.1401C136.865 26.9265 136.865 16.815 130.128 10.6043C123.394 4.39372 112.434 4.39075 105.694 10.6043L103 13.0892L100.306 10.6043C93.5691 4.39075 82.6093 4.39075 75.8725 10.6043C69.1356 16.815 69.1356 26.9265 75.8725 33.1401L100.724 56.0618ZM80.4238 14.8022C84.65 10.9072 91.5252 10.9072 95.7547 14.8022L100.724 19.3859C101.983 20.5467 104.017 20.5467 105.276 19.3859L110.245 14.8022C114.472 10.9072 121.35 10.9072 125.576 14.8022C129.803 18.7001 129.799 25.0414 125.576 28.9423L103 49.7651L80.4238 28.9423C76.2008 25.0443 76.2008 18.7001 80.4238 14.8022Z" fill="#3B8686"/>
<path d="M96.5625 118.75C98.3402 118.75 99.7812 117.421 99.7812 115.781C99.7812 114.142 98.3402 112.812 96.5625 112.812C94.7848 112.812 93.3438 114.142 93.3438 115.781C93.3438 117.421 94.7848 118.75 96.5625 118.75Z" fill="#3B8686"/>
<path d="M109.438 118.75C111.215 118.75 112.656 117.421 112.656 115.781C112.656 114.142 111.215 112.812 109.438 112.812C107.66 112.812 106.219 114.142 106.219 115.781C106.219 117.421 107.66 118.75 109.438 118.75Z" fill="#3B8686"/>
<path d="M107.162 125.557C104.867 127.674 101.133 127.674 98.8382 125.557C97.5797 124.397 95.5454 124.397 94.2869 125.557C93.0284 126.718 93.0284 128.594 94.2869 129.755C96.6881 131.973 99.8457 133.08 103 133.08C106.154 133.08 109.312 131.973 111.713 129.755C112.972 128.594 112.972 126.718 111.713 125.557C110.455 124.397 108.42 124.397 107.162 125.557Z" fill="#3B8686"/>
</g>
</svg>
