<svg width="20" height="20" viewBox="0 0 20 20" fill="none" xmlns="http://www.w3.org/2000/svg">
<g clip-path="url(#clip0_59_1225)">
<path fill-rule="evenodd" clip-rule="evenodd" d="M15.1494 17.8337L17.0112 18.6612C17.4837 18.8713 18.0369 18.7687 18.4025 18.4025C18.7687 18.0369 18.8713 17.4837 18.6612 17.0112L17.8337 15.1494C18.8081 13.6706 19.375 11.9012 19.375 10C19.375 4.82562 15.1744 0.625 10 0.625C4.82562 0.625 0.625 4.82562 0.625 10C0.625 15.1744 4.82562 19.375 10 19.375C11.9012 19.375 13.6706 18.8081 15.1494 17.8337ZM17.5188 17.5188C16.5025 17.0669 15.3375 16.5494 15.3375 16.5494C15.135 16.4594 14.9 16.4831 14.72 16.6125C13.3888 17.5644 11.7594 18.125 10 18.125C5.51562 18.125 1.875 14.4844 1.875 10C1.875 5.51562 5.51562 1.875 10 1.875C14.4844 1.875 18.125 5.51562 18.125 10C18.125 11.7594 17.5644 13.3888 16.6125 14.72C16.4831 14.9 16.4594 15.135 16.5494 15.3375L17.5188 17.5188ZM10 3.125C6.20563 3.125 3.125 6.20563 3.125 10C3.125 13.7944 6.20563 16.875 10 16.875C13.7944 16.875 16.875 13.7944 16.875 10C16.875 6.20563 13.7944 3.125 10 3.125ZM10 4.375C13.1044 4.375 15.625 6.89563 15.625 10C15.625 13.1044 13.1044 15.625 10 15.625C6.89563 15.625 4.375 13.1044 4.375 10C4.375 6.89563 6.89563 4.375 10 4.375ZM10 12.5C10.345 12.5 10.625 12.78 10.625 13.125C10.625 13.47 10.345 13.75 10 13.75C9.655 13.75 9.375 13.47 9.375 13.125C9.375 12.78 9.655 12.5 10 12.5ZM8.74875 8.75063C8.74875 8.06063 9.30937 7.5 9.99937 7.5C10.6894 7.5 11.25 8.06063 11.25 8.75063C11.25 9.44063 10.69 10 10 10C9.655 10 9.375 10.28 9.375 10.625V11.25C9.375 11.595 9.655 11.875 10 11.875C10.345 11.875 10.625 11.595 10.625 11.25V11.1713C11.7031 10.8938 12.5 9.915 12.5 8.75063C12.5 7.37063 11.3794 6.25 9.99937 6.25C8.61937 6.25 7.49875 7.37063 7.49875 8.75063C7.49875 9.09562 7.77875 9.37563 8.12375 9.37563C8.46875 9.37563 8.74875 9.09562 8.74875 8.75063Z" fill="black"/>
</g>
<defs>
<clipPath id="clip0_59_1225">
<rect width="20" height="20" fill="white"/>
</clipPath>
</defs>
</svg>
