<svg width="20" height="20" viewBox="0 0 20 20" fill="none" xmlns="http://www.w3.org/2000/svg">
<path d="M19.4584 8.69457L17.2203 6.45645V0.585938C17.2203 0.262344 16.9579 0 16.6343 0H14.1239C13.8003 0 13.538 0.262344 13.538 0.585938V2.77414L11.3045 0.540703C10.9558 0.192031 10.4922 3.90625e-05 9.99906 3.90625e-05C9.50589 3.90625e-05 9.0423 0.19207 8.69374 0.540742L0.539878 8.69453C-0.179966 9.41426 -0.179966 10.5855 0.539917 11.3055C0.888667 11.6541 1.35226 11.8462 1.84535 11.8462C1.94867 11.8462 2.05058 11.8372 2.15054 11.8207V17.8451C2.15054 19.0334 3.11718 20 4.30535 20H10.6269C10.9505 20 11.2128 19.7377 11.2128 19.4141V13.724H13.8065V19.4141C13.8065 19.7377 14.0689 20 14.3925 20H15.6929C16.8811 20 17.8478 19.0333 17.8478 17.8451V11.8207C17.9478 11.8373 18.0496 11.8462 18.153 11.8462C18.6461 11.8462 19.1097 11.6541 19.4584 11.3054C19.8071 10.9568 19.9991 10.4931 19.9991 9.99996C19.9991 9.50684 19.8071 9.04324 19.4584 8.69457ZM14.7098 1.17188H16.0484V5.28457L14.7098 3.94598V1.17188ZM15.6929 18.8281H14.9784V13.138C14.9784 12.8145 14.716 12.5521 14.3925 12.5521H10.6269C10.3033 12.5521 10.0409 12.8145 10.0409 13.138V18.8281H4.30535C3.76335 18.8281 3.32242 18.3871 3.32242 17.8451V11.1338L9.99914 4.45703L16.676 11.1338V17.8451C16.676 18.3871 16.235 18.8281 15.6929 18.8281ZM18.6298 10.4768C18.5024 10.6042 18.3331 10.6743 18.153 10.6743C17.9729 10.6743 17.8036 10.6042 17.6763 10.4768C17.6762 10.4768 17.6762 10.4768 17.6761 10.4767L10.4134 3.21406C10.299 3.09965 10.1491 3.04242 9.99914 3.04242C9.84921 3.04242 9.69921 3.09965 9.5848 3.21406L2.32222 10.4767C2.1948 10.6041 2.02542 10.6743 1.84535 10.6743C1.66523 10.6743 1.49585 10.6041 1.36851 10.4768C1.10558 10.2139 1.10558 9.78605 1.36847 9.5232L9.52246 1.36934C9.64972 1.24203 9.81898 1.17191 9.9991 1.17191C10.1793 1.17191 10.3486 1.24207 10.476 1.36937L18.6298 9.5232C18.7571 9.65055 18.8272 9.81988 18.8273 10C18.8273 10.1801 18.7571 10.3495 18.6298 10.4768Z" fill="black"/>
<path d="M8.11635 11.2968H5.60596C5.28236 11.2968 5.02002 11.5592 5.02002 11.8828V14.3933C5.02002 14.7168 5.28236 14.9792 5.60596 14.9792H8.11635C8.43994 14.9792 8.70229 14.7168 8.70229 14.3933V11.8828C8.70229 11.5592 8.43994 11.2968 8.11635 11.2968ZM7.53041 13.8073H6.19189V12.4687H7.53041V13.8073Z" fill="black"/>
</svg>
