<svg id="Layer_4" height="512" viewBox="0 0 24 24" width="512" xmlns="http://www.w3.org/2000/svg" xmlns:xlink="http://www.w3.org/1999/xlink" data-name="Layer 4"><linearGradient id="linear-gradient" gradientUnits="userSpaceOnUse" x1="12" x2="12" y1=".074" y2="23.854"><stop offset="0" stop-color="#a8e63c"/><stop offset="1" stop-color="#468158"/></linearGradient><g id="Vignette" fill="url(#linear-gradient)"><path d="m18 21h-12a3 3 0 0 1 -3-3v-12a3 3 0 0 1 3-3h12a3 3 0 0 1 3 3v12a3 3 0 0 1 -3 3zm-12-16a1 1 0 0 0 -1 1v12a1 1 0 0 0 1 1h12a1 1 0 0 0 1-1v-12a1 1 0 0 0 -1-1z"/><path d="m12 17a5 5 0 1 1 5-5 5.006 5.006 0 0 1 -5 5zm0-8a3 3 0 1 0 3 3 3 3 0 0 0 -3-3z"/></g></svg>