<svg width="30" height="30" viewBox="0 0 30 30" fill="none" xmlns="http://www.w3.org/2000/svg">
<g clip-path="url(#clip0_59_1227)">
<path d="M15 0C6.72891 0 0 6.72938 0 15C0 23.2706 6.72891 30 15 30C23.2706 30 30 23.2711 30 15C30 6.72891 23.2706 0 15 0ZM15 1.875C22.237 1.875 28.125 7.7625 28.125 15C28.125 17.6264 27.3469 20.0723 26.0133 22.1264C25.3312 18.8105 23.1736 15.9403 20.1431 14.3766C21.0286 13.2572 21.5625 11.8472 21.5625 10.3125C21.5625 6.69375 18.6187 3.75 15 3.75C11.3813 3.75 8.4375 6.69375 8.4375 10.3125C8.4375 11.8472 8.97141 13.2572 9.85687 14.3766C6.82594 15.9403 4.66875 18.8105 3.98672 22.1264C2.65313 20.0723 1.875 17.6264 1.875 15C1.875 7.7625 7.7625 1.875 15 1.875ZM10.3125 10.3125C10.3125 7.72781 12.4153 5.625 15 5.625C17.5847 5.625 19.6875 7.72781 19.6875 10.3125C19.6875 12.8972 17.5847 15 15 15C12.4153 15 10.3125 12.8972 10.3125 10.3125ZM15 28.125C11.3344 28.125 8.01656 26.6123 5.63297 24.1809C5.70984 20.4989 7.96031 17.1881 11.332 15.7519C12.3797 16.4606 13.642 16.875 15 16.875C16.3575 16.875 17.6203 16.4606 18.668 15.7519C22.0397 17.1881 24.2902 20.4989 24.367 24.1809C21.9834 26.6123 18.6656 28.125 15 28.125Z" fill="black"/>
</g>
<defs>
<clipPath id="clip0_59_1227">
<rect width="30" height="30" fill="white"/>
</clipPath>
</defs>
</svg>
