<svg width="80" height="80" viewBox="0 0 80 80" fill="none" xmlns="http://www.w3.org/2000/svg">
<g clip-path="url(#clip0_48_131)">
<path fill-rule="evenodd" clip-rule="evenodd" d="M39.9608 0.0698242C62.052 0.0698242 79.9608 17.974 79.9608 40.064C79.9608 62.154 62.0522 80.0651 39.9608 80.0651C17.8694 80.0651 -0.0390625 62.1542 -0.0390625 40.064C-0.0390625 17.9739 17.8708 0.0698242 39.9608 0.0698242Z" fill="#5EAC24"/>
<path fill-rule="evenodd" clip-rule="evenodd" d="M20.8679 33.5681H42.9318C43.1592 33.5703 43.3848 33.5274 43.5956 33.4418C43.8063 33.3563 43.998 33.2298 44.1596 33.0698C44.3212 32.9097 44.4495 32.7192 44.537 32.5093C44.6245 32.2994 44.6696 32.0742 44.6696 31.8468C44.6696 31.6193 44.6245 31.3942 44.537 31.1842C44.4495 30.9743 44.3212 30.7838 44.1596 30.6238C43.998 30.4637 43.8063 30.3373 43.5956 30.2517C43.3848 30.1662 43.1592 30.1233 42.9318 30.1255H20.8679C20.6405 30.1233 20.4149 30.1662 20.2041 30.2517C19.9934 30.3373 19.8017 30.4637 19.6401 30.6238C19.4785 30.7838 19.3502 30.9743 19.2627 31.1842C19.1752 31.3942 19.1301 31.6193 19.1301 31.8468C19.1301 32.0742 19.1752 32.2994 19.2627 32.5093C19.3502 32.7192 19.4785 32.9097 19.6401 33.0698C19.8017 33.2298 19.9934 33.3563 20.2041 33.4418C20.4149 33.5274 20.6405 33.5703 20.8679 33.5681ZM44.6535 36.5822C44.653 36.1257 44.4715 35.6881 44.1487 35.3653C43.8259 35.0425 43.3883 34.861 42.9318 34.8605H20.8679C20.6404 34.8583 20.4147 34.9012 20.2039 34.9868C19.9931 35.0723 19.8014 35.1988 19.6398 35.3589C19.4781 35.519 19.3498 35.7096 19.2623 35.9195C19.1747 36.1295 19.1296 36.3548 19.1296 36.5823C19.1296 36.8098 19.1747 37.035 19.2623 37.245C19.3498 37.4549 19.4781 37.6455 19.6398 37.8056C19.8014 37.9657 19.9931 38.0922 20.2039 38.1777C20.4147 38.2633 20.6404 38.3062 20.8679 38.304H42.9318C43.3883 38.3035 43.8259 38.1219 44.1487 37.7991C44.4715 37.4763 44.653 37.0387 44.6535 36.5822ZM20.8679 28.8331H33.7946C34.2512 28.8331 34.6892 28.6517 35.0121 28.3288C35.3349 28.0059 35.5163 27.568 35.5163 27.1114C35.5163 26.6548 35.3349 26.2168 35.0121 25.894C34.6892 25.5711 34.2512 25.3897 33.7946 25.3897H20.8679C20.4113 25.3897 19.9733 25.5711 19.6505 25.894C19.3276 26.2168 19.1462 26.6548 19.1462 27.1114C19.1462 27.568 19.3276 28.0059 19.6505 28.3288C19.9733 28.6517 20.4113 28.8331 20.8679 28.8331ZM24.124 44.4484C24.1326 44.3658 24.1238 44.2822 24.0981 44.2032C24.0724 44.1241 24.0305 44.0513 23.9749 43.9895C23.9194 43.9277 23.8515 43.8782 23.7757 43.8442C23.6999 43.8102 23.6177 43.7925 23.5346 43.7922H16.2501C16.1199 43.7922 15.995 43.7405 15.9029 43.6485C15.8108 43.5564 15.759 43.4316 15.7588 43.3014V20.3926C15.759 20.2624 15.8108 20.1376 15.9029 20.0456C15.995 19.9536 16.1199 19.9019 16.2501 19.9019H47.5495C47.6797 19.9019 47.8045 19.9536 47.8967 20.0456C47.9888 20.1376 48.0406 20.2624 48.0407 20.3926V43.3009C48.0406 43.4311 47.9888 43.556 47.8967 43.648C47.8045 43.74 47.6797 43.7917 47.5495 43.7917H32.7606C32.6781 43.7924 32.5967 43.8097 32.5212 43.8426C32.4456 43.8755 32.3775 43.9234 32.3209 43.9833C29.5154 47.0411 25.8199 49.1399 21.7567 49.9833C23.0848 48.6891 23.876 46.8375 24.124 44.4481V44.4484ZM65.3513 44.3948C65.3513 48.0716 63.5827 51.5131 60.364 54.1186C60.5137 57.352 61.702 59.3686 63.9851 60.2759C64.1138 60.3269 64.2206 60.4212 64.2872 60.5426C64.3538 60.6639 64.376 60.8047 64.3499 60.9406C64.3239 61.0766 64.2513 61.1992 64.1445 61.2873C64.0378 61.3754 63.9037 61.4236 63.7652 61.4234C63.7512 61.4234 63.7371 61.4234 63.7231 61.4223C60.0068 61.1573 56.4504 59.806 53.4959 57.5364C51.7093 58.0064 49.8693 58.2427 48.022 58.2395C43.7271 58.2395 39.6101 56.9789 36.424 54.6887C33.556 52.6262 31.6518 49.8862 30.9687 46.8851C27.622 49.6062 23.5186 51.2306 19.2163 51.5376C19.2023 51.5387 19.1882 51.5397 19.1695 51.5397C19.0355 51.5389 18.9058 51.4929 18.8013 51.4092C18.6968 51.3254 18.6237 51.2087 18.5938 51.0781C18.5603 50.9395 18.5783 50.7934 18.6446 50.6671C18.7109 50.5408 18.821 50.4429 18.9542 50.3919C21.1437 49.5211 22.4209 47.7487 22.856 44.9825H16.2501C15.8046 44.9817 15.3776 44.8043 15.0628 44.4891C14.7479 44.174 14.5709 43.7469 14.5706 43.3014V20.3926C14.5708 19.9471 14.7477 19.5199 15.0626 19.2047C15.3775 18.8895 15.8046 18.7122 16.2501 18.7115H47.5495C47.7705 18.7113 47.9894 18.7546 48.1937 18.8389C48.398 18.9232 48.5837 19.047 48.7401 19.2031C48.8966 19.3592 49.0208 19.5446 49.1056 19.7487C49.1904 19.9528 49.2342 20.1716 49.2345 20.3926V30.5836C53.4873 30.818 57.4454 32.2778 60.4349 34.7265C63.6062 37.3251 65.3513 40.7587 65.3513 44.3948Z" fill="white"/>
</g>
<defs>
<clipPath id="clip0_48_131">
<rect width="80" height="80" fill="white"/>
</clipPath>
</defs>
</svg>
