<svg width="50" height="50" viewBox="0 0 50 50" fill="none" xmlns="http://www.w3.org/2000/svg">
<g clip-path="url(#clip0_63_1323)">
<path d="M25 50C38.8071 50 50 38.8071 50 25C50 11.1929 38.8071 0 25 0C11.1929 0 0 11.1929 0 25C0 38.8071 11.1929 50 25 50Z" fill="#7FBF94"/>
<path d="M34.8395 42.5H15.1605C14.8413 42.4997 14.5352 42.3728 14.3095 42.1471C14.0837 41.9213 13.9568 41.6152 13.9565 41.296V8.704C13.9568 8.38476 14.0837 8.07867 14.3095 7.85294C14.5352 7.6272 14.8413 7.50026 15.1605 7.5H34.8395C35.1588 7.50026 35.4649 7.6272 35.6906 7.85294C35.9163 8.07867 36.0433 8.38476 36.0435 8.704V41.296C36.0433 41.6152 35.9163 41.9213 35.6906 42.1471C35.4649 42.3728 35.1588 42.4997 34.8395 42.5ZM15.1605 8.383C15.0754 8.38313 14.9939 8.41699 14.9337 8.47716C14.8735 8.53734 14.8397 8.61891 14.8395 8.704V41.296C14.8397 41.3811 14.8735 41.4627 14.9337 41.5228C14.9939 41.583 15.0754 41.6169 15.1605 41.617H34.8395C34.9246 41.6169 35.0062 41.583 35.0664 41.5228C35.1265 41.4627 35.1604 41.3811 35.1605 41.296V8.704C35.1604 8.61891 35.1265 8.53734 35.0664 8.47716C35.0062 8.41699 34.9246 8.38313 34.8395 8.383H15.1605Z" fill="black"/>
<path d="M32.4501 37.3415H17.7716C17.4523 37.3411 17.1463 37.2141 16.9205 36.9882C16.6948 36.7624 16.5679 36.4563 16.5676 36.137V13.863C16.5679 13.5437 16.6948 13.2376 16.9205 13.0118C17.1463 12.786 17.4523 12.6589 17.7716 12.6585H32.4501C32.7695 12.6589 33.0756 12.7859 33.3014 13.0117C33.5272 13.2375 33.6542 13.5437 33.6546 13.863V36.137C33.6542 36.4563 33.5272 36.7625 33.3014 36.9883C33.0756 37.2141 32.7695 37.3411 32.4501 37.3415ZM17.7716 13.5415C17.6864 13.5416 17.6048 13.5756 17.5446 13.6358C17.4844 13.6961 17.4506 13.7778 17.4506 13.863V36.137C17.4506 36.2222 17.4844 36.3039 17.5446 36.3642C17.6048 36.4244 17.6864 36.4584 17.7716 36.4585H32.4501C32.5354 36.4584 32.6171 36.4245 32.6773 36.3642C32.7376 36.3039 32.7715 36.2222 32.7716 36.137V13.863C32.7715 13.7778 32.7376 13.6961 32.6773 13.6358C32.6171 13.5756 32.5354 13.5416 32.4501 13.5415H17.7716Z" fill="black"/>
<path d="M28.7581 10.9625H21.3526C21.2355 10.9625 21.1232 10.916 21.0404 10.8332C20.9576 10.7504 20.9111 10.6381 20.9111 10.521C20.9111 10.4039 20.9576 10.2916 21.0404 10.2088C21.1232 10.126 21.2355 10.0795 21.3526 10.0795H28.7581C28.8752 10.0795 28.9875 10.126 29.0703 10.2088C29.1531 10.2916 29.1996 10.4039 29.1996 10.521C29.1996 10.6381 29.1531 10.7504 29.0703 10.8332C28.9875 10.916 28.8752 10.9625 28.7581 10.9625Z" fill="black"/>
<path d="M26.543 39.9205H23.568C23.4509 39.9205 23.3386 39.874 23.2558 39.7912C23.173 39.7084 23.1265 39.5961 23.1265 39.479C23.1265 39.3619 23.173 39.2496 23.2558 39.1668C23.3386 39.084 23.4509 39.0375 23.568 39.0375H26.543C26.6009 39.0375 26.6584 39.0489 26.7119 39.0711C26.7655 39.0933 26.8142 39.1258 26.8552 39.1668C26.8962 39.2078 26.9287 39.2565 26.9509 39.3101C26.973 39.3636 26.9845 39.421 26.9845 39.479C26.9845 39.537 26.973 39.5944 26.9509 39.648C26.9287 39.7015 26.8962 39.7502 26.8552 39.7912C26.8142 39.8322 26.7655 39.8647 26.7119 39.8869C26.6584 39.9091 26.6009 39.9205 26.543 39.9205Z" fill="black"/>
<path d="M25.0001 31.536C23.7074 31.536 22.4437 31.1527 21.3689 30.4345C20.2941 29.7163 19.4563 28.6955 18.9616 27.5012C18.4669 26.3069 18.3375 24.9927 18.5897 23.7249C18.8419 22.457 19.4644 21.2924 20.3785 20.3783C21.2925 19.4643 22.4571 18.8418 23.725 18.5896C24.9929 18.3374 26.307 18.4668 27.5013 18.9615C28.6956 19.4562 29.7164 20.2939 30.4346 21.3688C31.1528 22.4436 31.5361 23.7073 31.5361 25C31.5341 26.7328 30.8449 28.3941 29.6196 29.6195C28.3943 30.8448 26.733 31.534 25.0001 31.536ZM25.0001 19.347C23.8821 19.347 22.7891 19.6785 21.8595 20.2997C20.9298 20.9209 20.2053 21.8037 19.7774 22.8367C19.3496 23.8696 19.2376 25.0063 19.4557 26.1028C19.6739 27.1994 20.2123 28.2067 21.0028 28.9973C21.7934 29.7879 22.8007 30.3262 23.8973 30.5444C24.9938 30.7625 26.1305 30.6505 27.1634 30.2227C28.1964 29.7948 29.0793 29.0703 29.7004 28.1406C30.3216 27.211 30.6531 26.1181 30.6531 25C30.6514 23.5013 30.0553 22.0644 28.9955 21.0046C27.9357 19.9448 26.4989 19.3487 25.0001 19.347Z" fill="black"/>
<path d="M24.9999 29.903C24.0302 29.903 23.0823 29.6154 22.276 29.0767C21.4697 28.5379 20.8412 27.7722 20.4701 26.8763C20.099 25.9804 20.002 24.9945 20.1911 24.0435C20.3803 23.0924 20.8473 22.2187 21.533 21.533C22.2187 20.8473 23.0923 20.3804 24.0434 20.1912C24.9945 20.002 25.9803 20.0991 26.8762 20.4702C27.7721 20.8413 28.5379 21.4697 29.0766 22.276C29.6154 23.0823 29.9029 24.0303 29.9029 25C29.9015 26.2999 29.3844 27.5462 28.4653 28.4653C27.5461 29.3845 26.2998 29.9015 24.9999 29.903ZM24.9999 20.98C24.2048 20.98 23.4276 21.2158 22.7665 21.6575C22.1054 22.0992 21.5902 22.727 21.2859 23.4616C20.9817 24.1962 20.9021 25.0044 21.0572 25.7842C21.2123 26.5641 21.5952 27.2803 22.1574 27.8426C22.7196 28.4048 23.4359 28.7876 24.2157 28.9427C24.9955 29.0979 25.8038 29.0182 26.5383 28.714C27.2729 28.4097 27.9007 27.8945 28.3424 27.2334C28.7842 26.5723 29.0199 25.7951 29.0199 25C29.0187 23.9342 28.5948 22.9124 27.8412 22.1587C27.0875 21.4051 26.0657 20.9812 24.9999 20.98Z" fill="black"/>
<path d="M24.1766 27.0355C24.0612 27.0359 23.9504 26.9908 23.8681 26.91L22.3266 25.4025C22.245 25.3202 22.1991 25.2092 22.1987 25.0933C22.1983 24.9775 22.2435 24.8661 22.3244 24.7833C22.4054 24.7004 22.5157 24.6527 22.6315 24.6504C22.7473 24.6481 22.8594 24.6914 22.9436 24.771L24.1731 25.9735L27.0526 23.0935C27.1354 23.0107 27.2477 22.9642 27.3648 22.9642C27.4819 22.9642 27.5943 23.0107 27.6771 23.0935C27.7599 23.1763 27.8064 23.2886 27.8064 23.4058C27.8064 23.5229 27.7599 23.6352 27.6771 23.718L24.4891 26.9065C24.4061 26.9892 24.2937 27.0356 24.1766 27.0355Z" fill="black"/>
</g>
<defs>
<clipPath id="clip0_63_1323">
<rect width="50" height="50" fill="white"/>
</clipPath>
</defs>
</svg>
