<svg width="50" height="50" viewBox="0 0 50 50" fill="none" xmlns="http://www.w3.org/2000/svg">
<g clip-path="url(#clip0_63_1349)">
<path d="M23.1239 0H26.8311C27.2955 0.169015 28.3644 0.199544 28.922 0.281268C29.9194 0.436001 30.9053 0.657246 31.8731 0.943525C37.1709 2.45163 41.8216 5.6687 45.1014 10.094C47.6408 13.4998 49.2393 17.4585 49.8135 21.6478C49.8706 22.0642 49.8579 22.7016 50 23.0759V26.9446L49.9858 26.9926C49.8833 27.3534 49.8101 28.2974 49.7505 28.7319C49.6245 29.6918 49.4277 30.6412 49.1631 31.5724C47.3909 38.0342 43.1091 43.5194 37.2708 46.8071C34.9682 48.1063 32.4733 49.0303 29.8799 49.5444C29.384 49.6455 27.4193 49.9019 27.1754 50H22.8744C22.6844 49.9219 20.5087 49.6118 20.0194 49.5112C17.7145 49.0342 15.4862 48.2422 13.3973 47.1574C7.46694 44.1488 2.86092 38.4375 0.994238 32.0671C0.675317 30.9764 0.42736 29.8661 0.251917 28.7433C0.177339 28.261 0.149523 27.3444 0 26.929V23.1228C0.134528 22.7911 0.291558 20.9822 0.387489 20.4505C0.746802 18.5429 1.32085 16.6821 2.09866 14.9036C5.02895 8.24316 10.7198 3.19299 17.6813 1.07517C18.8826 0.718228 20.106 0.44069 21.3436 0.244362C21.8275 0.162763 22.7377 0.1667 23.1239 0Z" fill="#7FC094"/>
<path d="M15.2055 14.9514C17.2684 14.9062 19.4678 14.9477 21.5449 14.948L33.7492 14.9465L39.3452 14.9463C40.0442 14.9464 41.7283 14.9042 42.3466 15.0199C42.4467 15.1182 42.4837 15.215 42.4856 15.3533C42.5041 16.7555 42.4955 18.1597 42.4961 19.5618L42.4985 25.3655C42.4985 25.9691 42.5777 28.7854 42.3501 29.1654C41.9257 29.3375 39.3915 29.2677 38.7692 29.261C38.7749 29.6733 38.8548 31.5331 38.6569 31.6515C38.2544 31.8922 35.5756 31.797 35.0187 31.7948C35.0328 32.6943 35.0658 33.6513 35.0271 34.549C35.0176 34.7682 34.9839 34.8872 34.8156 35.0252C34.1033 35.1013 32.5094 35.0582 31.7385 35.0583L25.9534 35.0591L14.4734 35.0595C12.4705 35.0595 10.4651 35.0632 8.46222 35.0546C8.31969 35.054 7.75548 35.0484 7.65456 34.9599C7.55236 34.8702 7.49977 34.6137 7.50114 34.4754C7.50841 33.7394 7.50231 32.9961 7.50148 32.2603L7.50211 27.4354L7.50124 23.5888C7.50055 23.1247 7.40876 21.1264 7.68151 20.8293C8.09284 20.68 10.6305 20.7173 11.25 20.7144C11.2481 20.6869 11.2465 20.6595 11.2451 20.632C11.2101 19.7729 11.2202 18.8508 11.2484 17.9947C11.2572 17.7287 11.5422 17.464 11.8069 17.4662C12.8532 17.4749 13.9003 17.4824 14.9481 17.4818C14.939 16.8183 14.9117 16.1015 14.9512 15.4396C14.9655 15.2006 15.0271 15.0964 15.2055 14.9514Z" fill="black"/>
<path d="M18.3554 15.8243C20.6204 15.8798 23.1264 15.8282 25.4077 15.8283L39.2125 15.8258C39.1311 17.4004 40.0269 18.338 41.6097 18.2551L41.6115 25.9227C40.3333 25.8161 39.3212 26.5273 39.2257 27.8398C39.2136 28.0074 39.2491 28.2496 39.1552 28.3807L18.3536 28.3842C18.4194 26.6671 17.5242 25.8632 15.8493 25.9326C15.8628 23.4559 15.8972 20.8223 15.8333 18.3544C15.9 18.3564 15.9667 18.3576 16.0335 18.358C17.7333 18.3655 18.3774 17.4104 18.3554 15.8243Z" fill="#7FC094"/>
<path d="M21.5022 17.1967C22.2932 17.1356 23.6153 17.174 24.4454 17.1738H29.9601C30.7865 17.1739 35.5012 17.0785 35.9146 17.2074C36.3245 17.3353 36.0812 18.3024 36.2664 18.6643C36.6061 19.328 37.3628 19.0087 37.889 19.2225C37.9683 19.2547 38.0088 19.2938 38.0404 19.3705C38.1411 19.6147 38.1341 23.78 38.1057 24.3976C38.0979 24.5681 38.0833 24.7336 38.0192 24.8932C37.7908 25.1646 37.1301 25.0186 36.7123 25.1726C35.6679 25.5576 36.6197 26.7925 35.8446 27.0508C31.1853 27.0993 26.511 27.0244 21.8511 27.0501C21.2716 27.0533 21.3234 26.6383 21.3327 26.1729C21.3637 24.626 19.8548 25.3098 19.4504 24.9426C19.3793 24.7603 19.358 24.4588 19.3597 24.2591C19.3728 22.6646 19.3271 21.0648 19.3799 19.4719C19.39 19.3935 19.4183 19.2892 19.4986 19.2528C20.0517 19.0127 20.5599 19.3449 21.059 18.8591C21.6427 18.291 21.036 17.6948 21.5022 17.1967Z" fill="black"/>
<path d="M22.2799 18.0257C22.7229 18.0779 23.691 18.0552 24.1756 18.0551L27.6068 18.0524L32.4838 18.0546C33.3112 18.0548 34.3924 18.0847 35.203 18.0361C35.3492 19.2409 35.9874 19.9876 37.2267 20.0858C37.1868 21.2627 37.1844 22.965 37.2368 24.1355C36.0519 24.2341 35.2867 24.9779 35.2383 26.1737C33.7881 26.1445 32.2458 26.1704 30.7897 26.1701L22.2899 26.1755C22.1411 24.9595 21.4964 24.2339 20.2543 24.1447C20.2546 22.8473 20.2846 21.3882 20.2334 20.1042C21.5116 19.95 22.1229 19.2825 22.2799 18.0257Z" fill="#7FC094"/>
<path d="M28.4937 18.8441C29.2841 18.7415 29.1856 19.248 29.1724 19.8305C29.3137 19.8262 29.5767 19.8158 29.7103 19.8321C29.9298 19.8607 30.1284 19.9767 30.2613 20.1536C30.2781 20.2325 30.3084 20.2971 30.2572 20.3739C29.8645 21.0344 28.6563 20.3786 28.3225 21.0812C28.0785 21.595 29.1834 21.6997 29.3976 21.772C30.1133 22.0133 30.4053 22.8005 30.1529 23.4777C29.9539 24.0117 29.6322 24.2206 29.1525 24.4416C29.1983 24.8673 29.2217 25.0208 28.9802 25.3643C28.2342 25.497 28.2638 24.9854 28.3093 24.4261C27.9012 24.4366 27.1216 24.463 27.2234 23.8261C27.6808 23.1203 29.2358 24.001 29.3381 23.1284C29.4395 22.2641 28.1905 22.7237 27.7542 21.9747C27.2698 21.1433 27.5508 20.4826 28.2849 19.94C28.2781 19.4889 28.2069 19.1772 28.4937 18.8441Z" fill="black"/>
<path d="M34.2575 20.7764C34.746 20.6554 35.2618 20.807 35.6072 21.1729C35.9527 21.5389 36.0743 22.0626 35.9254 22.5433C35.7765 23.024 35.3802 23.3873 34.8884 23.4939C34.1432 23.6554 33.4064 23.1887 33.2339 22.446C33.0615 21.7033 33.5173 20.9597 34.2575 20.7764Z" fill="black"/>
<path d="M34.3935 21.6542C34.6546 21.5454 34.9545 21.6686 35.0636 21.9295C35.1728 22.1905 35.05 22.4906 34.7892 22.6001C34.5278 22.7098 34.2271 22.5867 34.1177 22.3252C34.0084 22.0637 34.1319 21.7631 34.3935 21.6542Z" fill="#7FC094"/>
<path d="M22.6769 20.7289C23.4299 20.6213 24.1302 21.1369 24.251 21.8879C24.3718 22.6388 23.8684 23.3481 23.1197 23.482C22.6236 23.5707 22.1181 23.3848 21.7978 22.9958C21.4774 22.6067 21.3919 22.075 21.5741 21.6051C21.7563 21.1352 22.178 20.8002 22.6769 20.7289Z" fill="black"/>
<path d="M22.7506 21.6065C23.0196 21.5419 23.2911 21.7026 23.364 21.9694C23.4369 22.2362 23.2848 22.5127 23.0204 22.5938C22.8419 22.6486 22.6477 22.6019 22.5137 22.4719C22.3797 22.3419 22.327 22.1493 22.3763 21.9692C22.4257 21.7891 22.5691 21.6501 22.7506 21.6065Z" fill="#7FC094"/>
<path d="M10.882 21.5636C10.9827 21.5782 11.2022 21.5997 11.2125 21.6914C11.2736 22.2333 11.2478 22.9757 11.2467 23.5094L11.2373 28.6247C11.2368 29.1269 11.1424 31.4096 11.4106 31.7239C11.8029 31.8296 13.2687 31.7977 13.7528 31.7971L17.3984 31.7958L34.1585 31.8024C34.1244 32.5262 34.1459 33.4316 34.1425 34.1694C33.4188 34.1258 32.3192 34.1632 31.5674 34.1649L10.8736 34.1765C10.9561 32.5717 10.0507 31.525 8.39062 31.7256L8.39238 24.0867C10.1075 24.2703 10.9636 23.2008 10.882 21.5636Z" fill="#7FC094"/>
<path d="M14.6195 18.3396C14.6635 18.3413 14.923 18.3513 14.9256 18.4122C15.0388 21.0244 14.9339 23.6621 14.9673 26.2777C14.9745 26.8405 14.8956 28.662 15.061 29.1218C15.3387 29.3547 20.9884 29.2623 21.8244 29.2621L32.0939 29.2602C34.0045 29.26 35.9875 29.234 37.8933 29.273L37.8927 30.9127L35.3211 30.9111L14.6148 30.9098C14.7636 29.2475 13.7294 28.3503 12.1172 28.4765L12.1145 20.851C12.2851 20.8591 12.6072 20.8685 12.7729 20.8529C13.3229 20.8034 13.8301 20.535 14.1804 20.108C14.6082 19.576 14.6852 18.9925 14.6195 18.3396Z" fill="#7FC094"/>
<path d="M12.1156 18.362C12.5074 18.358 13.6383 18.214 13.7913 18.6709C13.8784 18.931 13.5674 19.4509 13.4029 19.6557C13.2288 19.801 12.7717 20.0362 12.5531 20.0435C11.9431 20.064 12.1082 18.783 12.1156 18.362Z" fill="#7FC094"/>
<path d="M8.39318 21.6104C9.25646 21.6541 10.8282 21.3697 9.68586 22.8736C9.23112 23.2524 8.97316 23.2557 8.40529 23.229C8.37844 22.6898 8.38864 22.1501 8.39318 21.6104Z" fill="#7FC094"/>
<path d="M8.52591 32.5774C8.59427 32.5738 8.66277 32.5723 8.73128 32.5728C9.56575 32.5815 10.4356 33.64 9.88553 34.156C9.39427 34.1716 8.88348 34.17 8.39051 34.1753C8.38157 33.7292 8.3638 33.2247 8.397 32.7804C8.40745 32.6405 8.43235 32.6465 8.52591 32.5774Z" fill="#7FC094"/>
<path d="M12.151 29.3516C13.2715 29.2785 13.8611 29.7459 13.7055 30.9058L12.1165 30.9124C12.1145 30.4235 12.0957 29.8288 12.151 29.3516Z" fill="#7FC094"/>
<path d="M15.8703 15.8382C16.7717 15.8545 18.2711 15.6344 17.1163 17.1124C16.9332 17.2585 16.5933 17.4286 16.3686 17.4785C15.6726 17.6331 15.8601 16.2754 15.8703 15.8382Z" fill="#7FC094"/>
<path d="M15.8774 26.819C16.9281 26.7491 17.6652 27.2422 17.4072 28.3742L15.8418 28.3751C15.8642 27.8404 15.8322 27.3822 15.8774 26.819Z" fill="#7FC094"/>
<path d="M40.9819 26.816C41.1676 26.7958 41.4062 26.8054 41.5969 26.8074C41.6184 27.3078 41.6066 27.8725 41.6074 28.3776L40.6874 28.3777L40.0978 28.3629C40.0594 27.5362 40.1806 27.1629 40.9819 26.816Z" fill="#7FC094"/>
<path d="M40.156 15.8416C40.6498 15.8207 41.1204 15.8278 41.6138 15.8337C41.6165 16.1314 41.6557 17.2151 41.5404 17.3914C41.0543 17.3849 40.8959 17.3627 40.4981 17.0587C40.1922 16.8248 39.8681 16.1724 40.156 15.8416Z" fill="#7FC094"/>
</g>
<defs>
<clipPath id="clip0_63_1349">
<rect width="50" height="50" fill="white"/>
</clipPath>
</defs>
</svg>
