<svg width="80" height="80" viewBox="0 0 80 80" fill="none" xmlns="http://www.w3.org/2000/svg">
<g clip-path="url(#clip0_48_174)">
<path fill-rule="evenodd" clip-rule="evenodd" d="M40 0C62.0914 0 80 17.9086 80 40C80 62.0914 62.0914 80 40 80C17.9086 80 0 62.0914 0 40C0 17.9086 17.9086 0 40 0ZM44.2169 46.2875C44.2154 45.1696 43.7708 44.0979 42.9805 43.3073C42.1902 42.5166 41.1187 42.0716 40.0008 42.0697C39.7185 42.0696 39.4417 41.9921 39.2004 41.8457C38.9591 41.6992 38.7625 41.4894 38.6321 41.2391C38.5018 40.9887 38.4425 40.7074 38.4608 40.4258C38.4791 40.1441 38.5743 39.8728 38.736 39.6415C38.8978 39.4101 39.1198 39.2276 39.378 39.1136C39.6363 38.9996 39.9208 38.9587 40.2007 38.9951C40.4806 39.0316 40.7452 39.1441 40.9656 39.3204C41.186 39.4967 41.3539 39.7301 41.4509 39.9952C41.5732 40.3279 41.8226 40.5985 42.1443 40.7473C42.4661 40.8961 42.8337 40.9111 43.1665 40.7888C43.4992 40.6666 43.7698 40.4172 43.9186 40.0954C44.0675 39.7737 44.0824 39.406 43.9602 39.0733C43.7582 38.5264 43.4453 38.0271 43.0411 37.607C42.6369 37.1868 42.1501 36.8548 41.6114 36.6319L41.3367 36.518V36.0048C41.3367 35.6504 41.1959 35.3105 40.9453 35.0599C40.6947 34.8092 40.3548 34.6684 40.0003 34.6684C39.6459 34.6684 39.306 34.8092 39.0553 35.0599C38.8047 35.3105 38.6639 35.6504 38.6639 36.0048V36.5156L38.3894 36.6297C37.4874 37.0023 36.7425 37.6763 36.2819 38.5367C35.8213 39.3971 35.6735 40.3907 35.8636 41.3479C36.0537 42.3052 36.5701 43.1668 37.3245 43.7859C38.079 44.405 39.0248 44.7432 40.0008 44.7428C40.2832 44.743 40.5601 44.8206 40.8014 44.9671C41.0428 45.1136 41.2394 45.3235 41.3698 45.574C41.5003 45.8244 41.5595 46.1058 41.5412 46.3876C41.5229 46.6694 41.4278 46.9407 41.266 47.1722C41.1043 47.4037 40.8822 47.5864 40.6239 47.7005C40.3657 47.8146 40.081 47.8557 39.801 47.8193C39.521 47.783 39.2563 47.6706 39.0357 47.4944C38.8151 47.3181 38.647 47.0848 38.5497 46.8197C38.4263 46.4888 38.177 46.2203 37.8562 46.0726C37.5354 45.925 37.1693 45.9103 36.8377 46.0317C36.5061 46.1532 36.2361 46.4009 36.0866 46.7208C35.937 47.0407 35.9202 47.4068 36.0397 47.7391C36.242 48.2861 36.5551 48.7855 36.9595 49.2058C37.3638 49.6262 37.8507 49.9584 38.3895 50.1817L38.6639 50.2958V50.8086C38.6639 51.163 38.8047 51.5029 39.0553 51.7536C39.306 52.0042 39.6459 52.145 40.0003 52.145C40.3548 52.145 40.6947 52.0042 40.9453 51.7536C41.1959 51.5029 41.3367 51.163 41.3367 50.8086V50.2981L41.6113 50.1841C42.3817 49.8644 43.0403 49.3239 43.504 48.6305C43.9677 47.9371 44.2158 47.122 44.2169 46.2878V46.2875ZM40.0008 53.9231C42.0804 53.9228 44.1133 53.3058 45.8424 52.1502C47.5714 50.9946 48.9189 49.3522 49.7146 47.4308C50.5103 45.5093 50.7184 43.3951 50.3125 41.3554C49.9067 39.3157 48.9051 37.4422 47.4346 35.9717C45.964 34.5012 44.0904 33.4997 42.0507 33.094C40.011 32.6882 37.8968 32.8964 35.9754 33.6921C34.054 34.4879 32.4117 35.8355 31.2561 37.5646C30.1006 39.2937 29.4837 41.3266 29.4834 43.4062C29.4865 46.1946 30.5956 48.8678 32.5674 50.8394C34.5391 52.811 37.2124 53.9199 40.0008 53.9228V53.9231ZM40.0008 30.218C37.3921 30.2178 34.8419 30.9913 32.6728 32.4405C30.5037 33.8897 28.8131 35.9496 27.8147 38.3597C26.8164 40.7698 26.5551 43.4218 27.064 45.9804C27.573 48.539 28.8292 50.8891 30.6738 52.7338C32.5185 54.5784 34.8687 55.8345 37.4273 56.3434C39.9858 56.8522 42.6379 56.5909 45.0479 55.5925C47.458 54.5941 49.5179 52.9034 50.967 50.7343C52.4162 48.5651 53.1896 46.0149 53.1894 43.4062C53.1849 39.9099 51.7939 36.5581 49.3215 34.0859C46.8491 31.6137 43.4971 30.223 40.0008 30.2187V30.218ZM55.9611 21.4233H50.0609V24.0559C50.0604 24.5806 49.8517 25.0836 49.4807 25.4545C49.1097 25.8255 48.6067 26.0341 48.082 26.0347H45.6406C45.2394 26.0375 44.8469 25.9171 44.5163 25.6898C44.1856 25.4625 43.9326 25.1392 43.7916 24.7636L43.3862 23.7003H36.5092L36.103 24.7628C35.9618 25.1384 35.7088 25.4617 35.3782 25.689C35.0475 25.9164 34.6552 26.0368 34.2539 26.0342H31.8125C31.2879 26.0336 30.7849 25.825 30.414 25.454C30.043 25.0831 29.8343 24.5801 29.8338 24.0555V21.4233H24.0389V65.3906H55.9608V21.4233H55.9611ZM32.5067 18.4611V23.362H33.7767L34.3406 21.8869C34.4375 21.634 34.6088 21.4165 34.8321 21.2632C35.0553 21.1099 35.3198 21.028 35.5906 21.0284H44.3067C44.5772 21.0285 44.8414 21.1107 45.0641 21.2642C45.2869 21.4176 45.4579 21.6351 45.5544 21.8878L46.1191 23.3628H47.3889V18.4611H43.7252C43.5474 18.461 43.3714 18.4255 43.2075 18.3566C43.0436 18.2877 42.8951 18.1868 42.7707 18.0598C42.6463 17.9328 42.5485 17.7823 42.4829 17.617C42.4174 17.4518 42.3855 17.2751 42.3891 17.0973V17.0608V17.0511C42.3891 16.4033 42.1317 15.782 41.6737 15.324C41.2156 14.8659 40.5944 14.6086 39.9466 14.6086C39.2988 14.6086 38.6775 14.8659 38.2195 15.324C37.7614 15.782 37.5041 16.4033 37.5041 17.0511V17.0555L37.505 17.1009C37.508 17.2784 37.4756 17.4547 37.4097 17.6195C37.3438 17.7843 37.2458 17.9343 37.1214 18.0608C36.9969 18.1874 36.8485 18.2879 36.6848 18.3564C36.5212 18.425 36.3454 18.4603 36.168 18.4603L32.5067 18.4611Z" fill="#5EAC24"/>
</g>
<defs>
<clipPath id="clip0_48_174">
<rect width="80" height="80" fill="white"/>
</clipPath>
</defs>
</svg>
