<svg width="80" height="80" viewBox="0 0 80 80" fill="none" xmlns="http://www.w3.org/2000/svg">
<g clip-path="url(#clip0_48_159)">
<path d="M40.0007 80.0015C62.0925 80.0015 80.0015 62.0925 80.0015 40.0007C80.0015 17.9089 62.0925 0 40.0007 0C17.9089 0 0 17.9089 0 40.0007C0 62.0925 17.9089 80.0015 40.0007 80.0015Z" fill="#689F38"/>
<path fill-rule="evenodd" clip-rule="evenodd" d="M61.3604 65.3908H18.6396C18.3938 65.3908 18.1941 65.1915 18.1941 64.9455L18.1943 22.2245C18.1943 21.9787 18.3936 21.7794 18.6394 21.7794H36.2562C36.502 21.7794 36.7015 21.9789 36.7015 22.2249C36.7017 22.4707 36.502 22.6702 36.256 22.6702H19.0851V64.5H60.9149V22.6702H43.7438C43.498 22.6702 43.2983 22.4709 43.2983 22.2249C43.2983 21.9787 43.4978 21.7794 43.7436 21.7794H61.3604C61.6062 21.7794 61.8057 21.9789 61.8057 22.2249V64.9453C61.8057 65.1913 61.6062 65.3908 61.3604 65.3908Z" fill="#FFFFFE"/>
<path fill-rule="evenodd" clip-rule="evenodd" d="M40.0006 15.4998C37.7304 15.4998 35.8837 17.3467 35.8837 19.6168C35.8837 21.8868 37.7303 23.7337 40.0004 23.7337C42.2705 23.7337 44.1171 21.887 44.1171 19.6168C44.1173 17.3465 42.2705 15.5001 40.0006 15.4998ZM40.0006 24.6244C37.2384 24.6244 34.9927 22.378 34.9927 19.6168C34.9929 16.8554 37.2384 14.6091 40.0004 14.6091C42.7614 14.6091 45.0079 16.8556 45.0079 19.6168C45.0079 22.378 42.761 24.6245 40.0006 24.6244Z" fill="#FFFFFE"/>
<path fill-rule="evenodd" clip-rule="evenodd" d="M40.0006 28.976C39.7544 28.976 39.5549 28.7767 39.5549 28.5307L39.5551 24.1788C39.5551 23.933 39.7544 23.7335 40.0004 23.7335C40.2464 23.7333 40.4459 23.933 40.4459 24.179V28.5307C40.4459 28.7765 40.2464 28.976 40.0006 28.976Z" fill="#FFFFFE"/>
<path fill-rule="evenodd" clip-rule="evenodd" d="M56.3935 35.0889H23.6079C23.362 35.0889 23.1624 34.8896 23.1624 34.6436C23.1624 34.3976 23.3618 34.1983 23.6077 34.1983L56.3935 34.1981C56.6393 34.1981 56.8386 34.3976 56.8386 34.6436C56.8386 34.8896 56.6391 35.0891 56.3935 35.0889Z" fill="#FFFFFE"/>
<path fill-rule="evenodd" clip-rule="evenodd" d="M56.3935 42.5607H23.6079C23.362 42.5607 23.1624 42.3614 23.1624 42.1154C23.1624 41.8694 23.3618 41.6701 23.6077 41.6701L56.3935 41.6699C56.6393 41.6699 56.8386 41.8696 56.8386 42.1154C56.8386 42.3614 56.6391 42.5609 56.3935 42.5607Z" fill="#FFFFFE"/>
<path fill-rule="evenodd" clip-rule="evenodd" d="M56.3935 50.0327H23.6079C23.362 50.0327 23.1624 49.8334 23.1624 49.5874C23.1624 49.3412 23.3618 49.1419 23.6077 49.1419L56.3935 49.1417C56.6393 49.1417 56.8386 49.3412 56.8386 49.5874C56.8386 49.8334 56.6391 50.0327 56.3935 50.0327Z" fill="#FFFFFE"/>
<path fill-rule="evenodd" clip-rule="evenodd" d="M56.3935 57.5045H23.6079C23.362 57.5045 23.1624 57.3051 23.1624 57.0591C23.1624 56.8131 23.3618 56.6138 23.6077 56.6138L56.3935 56.6136C56.6393 56.6136 56.8386 56.8131 56.8386 57.0591C56.8386 57.305 56.6391 57.5046 56.3935 57.5045Z" fill="#FFFFFE"/>
</g>
<defs>
<clipPath id="clip0_48_159">
<rect width="80" height="80" fill="white"/>
</clipPath>
</defs>
</svg>
