<svg width="20" height="20" viewBox="0 0 20 20" fill="none" xmlns="http://www.w3.org/2000/svg">
<path d="M10 1.01563C8.22306 1.01562 6.48603 1.54255 5.00855 2.52976C3.53108 3.51698 2.37953 4.92015 1.69952 6.56183C1.01952 8.20351 0.841597 10.01 1.18826 11.7528C1.53493 13.4956 2.3906 15.0964 3.64709 16.3529C4.90358 17.6094 6.50444 18.4651 8.24724 18.8117C9.99004 19.1584 11.7965 18.9805 13.4382 18.3005C15.0799 17.6205 16.483 16.4689 17.4702 14.9915C18.4575 13.514 18.9844 11.7769 18.9844 10C18.9811 7.61821 18.0334 5.33492 16.3493 3.65074C14.6651 1.96656 12.3818 1.01893 10 1.01563ZM10 17.5C8.51664 17.5 7.0666 17.0601 5.83323 16.236C4.59986 15.4119 3.63856 14.2406 3.07091 12.8701C2.50325 11.4997 2.35473 9.99168 2.64411 8.53682C2.9335 7.08196 3.64781 5.74559 4.6967 4.6967C5.7456 3.6478 7.08197 2.9335 8.53683 2.64411C9.99168 2.35472 11.4997 2.50325 12.8701 3.0709C14.2406 3.63856 15.4119 4.59985 16.236 5.83322C17.0601 7.06659 17.5 8.51664 17.5 10C17.5 11.9891 16.7098 13.8968 15.3033 15.3033C13.8968 16.7098 11.9891 17.5 10 17.5Z" fill="black"/>
<path d="M11.2499 9.14064H10.8593V6.15001H12.3562C12.5841 6.15001 12.8027 6.05947 12.9639 5.89831C13.125 5.73714 13.2156 5.51856 13.2156 5.29064C13.2156 5.06272 13.125 4.84413 12.9639 4.68297C12.8027 4.5218 12.5841 4.43126 12.3562 4.43126H10.8593V3.91876C10.8593 3.69084 10.7688 3.47226 10.6076 3.31109C10.4464 3.14993 10.2279 3.05939 9.99994 3.05939C9.77202 3.05939 9.55343 3.14993 9.39227 3.31109C9.2311 3.47226 9.14056 3.69084 9.14056 3.91876V4.43126H9.06244C8.63193 4.41784 8.20311 4.49104 7.80143 4.64652C7.39976 4.802 7.03341 5.03659 6.72413 5.33637C6.41486 5.63615 6.16896 5.99501 6.00104 6.39164C5.83311 6.78828 5.74658 7.21461 5.74658 7.64532C5.74658 8.07604 5.83311 8.50237 6.00104 8.89901C6.16896 9.29564 6.41486 9.6545 6.72413 9.95428C7.03341 10.2541 7.39976 10.4887 7.80143 10.6441C8.20311 10.7996 8.63193 10.8728 9.06244 10.8594H9.14056V13.85H7.64369C7.41577 13.85 7.19718 13.9406 7.03602 14.1017C6.87485 14.2629 6.78431 14.4815 6.78431 14.7094C6.78431 14.9373 6.87485 15.1559 7.03602 15.3171C7.19718 15.4782 7.41577 15.5688 7.64369 15.5688H9.14056V16.0813C9.14056 16.3092 9.2311 16.5278 9.39227 16.6889C9.55343 16.8501 9.77202 16.9406 9.99994 16.9406C10.2279 16.9406 10.4464 16.8501 10.6076 16.6889C10.7688 16.5278 10.8593 16.3092 10.8593 16.0813V15.5563C11.752 15.4946 12.5881 15.097 13.1992 14.4435C13.8104 13.79 14.1512 12.9291 14.1531 12.0344C14.1527 11.6537 14.0772 11.2768 13.9311 10.9253C13.7849 10.5738 13.5709 10.2545 13.3013 9.9858C13.0317 9.71704 12.7117 9.50407 12.3597 9.35905C12.0077 9.21404 11.6306 9.13982 11.2499 9.14064ZM9.06244 6.15001H9.14056V9.14064H9.06244C8.86032 9.14988 8.65843 9.11805 8.46896 9.04707C8.27948 8.9761 8.10637 8.86744 7.96007 8.72768C7.81377 8.58792 7.69732 8.41995 7.61776 8.23391C7.53821 8.04788 7.49719 7.84765 7.49719 7.64532C7.49719 7.443 7.53821 7.24277 7.61776 7.05673C7.69732 6.8707 7.81377 6.70273 7.96007 6.56297C8.10637 6.42321 8.27948 6.31455 8.46896 6.24358C8.65843 6.1726 8.86032 6.14077 9.06244 6.15001ZM10.8593 13.8313V10.8594H11.2499C11.5613 10.8602 11.8597 10.9843 12.0799 11.2044C12.3001 11.4246 12.4241 11.723 12.4249 12.0344C12.4246 12.4724 12.2659 12.8954 11.9782 13.2257C11.6905 13.5559 11.2931 13.771 10.8593 13.8313Z" fill="black"/>
</svg>
