<svg width="50" height="50" viewBox="0 0 50 50" fill="none" xmlns="http://www.w3.org/2000/svg">
<g clip-path="url(#clip0_63_1338)">
<path d="M23.1239 0H26.8311C27.2957 0.169049 28.3642 0.199531 28.922 0.281274C29.9077 0.434077 30.8821 0.652002 31.839 0.933623C37.1505 2.43776 41.8142 5.65898 45.1014 10.094C47.6407 13.4994 49.2393 17.4589 49.8135 21.6478C49.8706 22.0644 49.8579 22.7016 50 23.076V26.9446L49.9858 26.9926C49.877 27.378 49.8062 28.3177 49.7441 28.7792C49.6245 29.6961 49.438 30.6031 49.1855 31.4928C47.434 37.9608 43.1693 43.4602 37.3409 46.7668C35.0269 48.0832 32.5164 49.0195 29.9054 49.5396C29.3713 49.6489 27.4523 49.894 27.1749 50H22.8744C22.6879 49.9233 20.4998 49.6104 20.0194 49.5117C17.7053 49.0322 15.4684 48.2357 13.3722 47.1445C7.45474 44.1338 2.85774 38.4275 0.994233 32.0671C0.675337 30.9764 0.427371 29.8661 0.251897 28.7433C0.177212 28.2604 0.149579 27.3449 0 26.9286V23.1228C0.130803 22.8001 0.29558 20.96 0.392133 20.4256C0.749932 18.5361 1.31848 16.6927 2.08712 14.93C5.01377 8.25688 10.7102 3.19588 17.6814 1.07521C18.8826 0.718218 20.106 0.440659 21.3437 0.244334C21.8275 0.16275 22.7377 0.166707 23.1239 0Z" fill="#7FC094"/>
<path d="M33.7562 7.48755C35.7828 7.47974 35.4071 9.83697 35.4032 11.2028L35.394 15.5353C35.5717 15.5271 35.7495 15.5242 35.9273 15.5265C36.7224 15.5413 37.4796 15.8688 38.035 16.438C38.5905 17.0201 38.8915 17.7994 38.8714 18.6038C38.8555 19.4051 38.5204 20.167 37.9405 20.7203C37.1828 21.4398 36.3893 21.5588 35.3949 21.5309L35.4028 25.8923C35.405 26.7709 35.5783 28.4271 34.971 29.071C34.6609 29.3951 34.2324 29.5793 33.7838 29.5813C33.3607 29.5882 32.953 29.4219 32.6553 29.1211C32.1119 28.5694 32.1718 27.9773 32.1749 27.264C29.5083 25.344 26.6212 23.6855 23.3036 23.2517C22.4131 23.1353 21.6437 23.1472 20.7498 23.1489C20.7633 24.1659 20.7598 24.547 20.3384 25.4769C20.419 25.8666 20.476 26.3181 20.5324 26.7128C20.9546 26.3261 21.3455 25.9747 21.9335 25.9072C22.8551 25.7979 23.698 26.4878 23.7709 27.4151C23.8635 28.5946 22.5674 29.5585 21.8542 30.4164C22.0227 30.4011 22.2674 30.3833 22.4386 30.3896C23.869 30.4423 25.4795 30.2726 26.8846 30.4532C27.7663 30.5665 28.4312 31.5053 28.406 32.3502C28.3864 33.0077 28.1335 33.419 27.6784 33.8865C27.8253 34.0266 27.9732 34.2008 28.071 34.3784C28.3513 34.8996 28.4134 35.5106 28.2438 36.0776C28.0557 36.6932 27.663 37.0518 27.1184 37.3453C27.5884 38.0751 27.5023 38.955 27.0407 39.6635C27.0007 39.7125 26.9578 39.759 26.9121 39.8028C26.3174 40.3708 25.6883 40.2959 24.9297 40.2829C25.034 40.7178 25.0813 41.1658 24.8984 41.5878C24.7656 41.8944 24.4477 42.2566 24.1271 42.373C23.4525 42.6176 18.2078 42.5531 17.3011 42.4151C16.6878 42.3218 16.1069 42.1136 15.551 41.843C15.4522 41.9704 15.3515 42.1069 15.2165 42.1982C15.0565 42.3062 14.8616 42.3712 14.6718 42.4014C14.207 42.4752 12.5217 42.4744 12.0824 42.3876C11.8111 42.3341 11.4477 42.178 11.303 41.9256C11.1782 41.7081 11.146 41.326 11.1317 41.0753C11.0767 40.1074 11.0571 31.6521 11.1923 31.2251C11.2701 30.9793 11.4502 30.7511 11.6796 30.6318C11.8542 30.5411 12.055 30.4963 12.2492 30.4743C12.6152 30.4327 14.2157 30.4065 14.5444 30.4602C14.8419 30.5087 15.1031 30.6806 15.3892 30.7613C15.522 30.7988 15.5847 30.7863 15.7037 30.7241C15.8682 30.4716 15.111 26.7047 15.12 25.9758C15.1256 25.5222 14.7793 24.9466 14.7029 24.4947C14.6178 23.9917 14.6427 23.4447 14.6425 22.9408C14.0589 22.668 13.6279 22.414 13.2118 21.9135C12.29 20.8539 12.4472 19.8867 12.3869 18.6407C12.2896 16.632 12.6222 14.9352 14.6993 14.1203C15.6106 13.794 16.6408 13.9538 17.574 13.9069C20.0949 13.7805 22.746 14.214 25.2235 13.7314C27.9749 13.1955 30.0729 11.8086 32.1757 10.0657C32.1614 8.78545 32.164 7.64541 33.7562 7.48755Z" fill="black"/>
<path d="M21.9421 26.7624C22.655 26.7489 23.1085 27.2756 22.7764 27.9525C22.3114 28.9 20.8253 29.8615 20.4233 30.8019C20.4583 31.4522 21.8287 31.2916 22.325 31.2891L24.8932 31.2739C25.7236 31.2686 27.6429 31.0588 27.5215 32.3843C27.3838 33.8893 25.3056 33.3036 24.3055 33.4051C24.0179 33.4316 22.8934 33.304 22.719 33.5338C21.9487 34.5489 24.2198 34.286 24.4068 34.3006C25.3392 34.3735 26.4806 34.0337 27.2057 34.6854C27.4068 34.8661 27.4889 35.2516 27.4678 35.5071C27.2827 37.4042 24.343 36.0721 23.254 36.7664C23.1901 36.8088 23.1545 36.9677 23.1748 37.0499C23.4063 37.9878 25.4491 37.0198 26.2924 37.6817L26.3278 37.71C26.4968 38.0065 26.7093 38.7242 26.443 39.0059C25.7305 39.7591 24.0805 39.2416 23.1292 39.4156C22.7821 39.4791 22.7349 39.7723 22.7912 40.0284C22.9617 40.3318 23.4062 40.268 23.755 40.3932C24.3667 40.4815 24.182 41.5065 23.7785 41.5429C22.1083 41.6933 19.8754 41.582 18.2308 41.5977C17.222 41.6073 16.4094 41.2593 15.6955 40.9645L15.6907 31.9194L19.5481 28.6771C20.05 28.2541 21.4333 27.0345 21.9421 26.7624Z" fill="#7FC094"/>
<path d="M32.1108 11.2652L32.1493 11.3008C32.2389 11.5933 32.179 14.4211 32.179 14.9081L32.1794 26.1777C30.0618 24.6775 27.7221 23.3899 25.2014 22.7228C24.0807 22.3897 22.844 22.2746 21.6787 22.2673V14.8398C25.7842 14.9992 28.9733 13.8522 32.1108 11.2652Z" fill="#7FC094"/>
<path d="M15.7479 14.8126C16.1441 14.7725 17.0691 14.7959 17.4979 14.7965L20.8024 14.8033C20.7651 17.2534 20.795 19.8132 20.8037 22.271C20.0491 22.2622 19.2745 22.2722 18.5182 22.273C16.6503 22.2816 13.5006 22.7266 13.3089 19.8971C13.165 17.7729 12.9457 15.1364 15.7479 14.8126Z" fill="#7FC094"/>
<path d="M33.5479 8.40059C34.2963 8.3625 34.5178 8.62051 34.5171 9.34956C34.5113 15.4634 34.5197 21.5782 34.5176 27.692C34.5175 28.2124 34.4916 28.4551 33.9886 28.6688C33.8696 28.6802 33.7435 28.6938 33.6255 28.6699C33.4529 28.6349 33.2777 28.544 33.1823 28.3906C32.9518 28.0193 33.0596 24.4732 33.0595 23.8366L33.0603 12.7853C33.0604 11.6035 33.0388 10.0851 33.0904 8.89063C33.0994 8.68276 33.3753 8.50112 33.5479 8.40059Z" fill="#7FC094"/>
<path d="M12.051 31.361C12.8882 31.3379 13.9569 31.333 14.7852 31.3671C14.861 33.8885 14.7759 36.4387 14.8092 38.9636C14.8196 39.7455 14.8571 40.7449 14.7676 41.5081C13.898 41.5331 12.887 41.5485 12.0242 41.5042C11.941 39.2765 12.0516 36.871 12.0057 34.6267C11.9967 34.1886 11.986 31.6 12.051 31.361Z" fill="#7FC094"/>
<path d="M15.5206 23.1427C16.9034 23.1918 18.4769 23.157 19.8739 23.1573C19.8723 24.1013 19.9428 24.5308 19.3219 25.2982C18.4801 26.0846 16.9257 26.1327 16.0785 25.3076C15.4653 24.7104 15.5198 23.9284 15.5206 23.1427Z" fill="#7FC094"/>
<path d="M35.4055 16.4125C36.1432 16.3937 36.7624 16.4719 37.3326 17.0096C37.7406 17.389 37.9813 17.9148 38.0017 18.4716C38.0197 19.115 37.7544 19.619 37.3294 20.0756C36.6307 20.626 36.2736 20.6691 35.4067 20.654C35.3669 19.3103 35.393 17.7672 35.4055 16.4125Z" fill="#7FC094"/>
<path d="M19.491 26.3121L19.5428 26.3159C19.6445 26.4083 19.7211 27.1616 19.7483 27.35C18.6966 28.2428 17.6105 29.117 16.5812 30.0325L16.514 29.541C16.3457 28.4993 16.1865 27.4561 16.0366 26.4116C17.1583 26.9062 18.4112 26.9338 19.491 26.3121Z" fill="#7FC094"/>
</g>
<defs>
<clipPath id="clip0_63_1338">
<rect width="50" height="50" fill="white"/>
</clipPath>
</defs>
</svg>
