<svg width="164" height="166" viewBox="0 0 164 166" fill="none" xmlns="http://www.w3.org/2000/svg">
<g opacity="0.8">
<path d="M94.8125 70.0312H69.1875C60.6954 70.0312 53.8125 63.0644 53.8125 54.4688C53.8125 44.4413 61.8434 36.3125 71.75 36.3125H92.25C102.157 36.3125 110.188 44.4413 110.188 54.4688C110.188 63.0644 103.305 70.0312 94.8125 70.0312Z" fill="#A8DBA8"/>
<path d="M140.938 77.8125L138.375 101.156L115.312 106.344H49.5613L25.625 101.156L23.0625 77.8125H7.6875L9.56325 106.294C9.97838 112.6 14.1194 118.026 20.0413 120.023L48.6875 129.688V158.219H115.312V129.688L143.959 120.023C149.881 118.026 154.022 112.6 154.437 106.294L156.312 77.8125H140.938Z" fill="#79BD9A"/>
<path d="M82 116.719C76.3394 116.719 71.75 112.073 71.75 106.344V93.375H92.25V106.344C92.25 112.073 87.6606 116.719 82 116.719Z" fill="white"/>
<path d="M76.875 114.125V108.937C83.0071 108.937 88.4934 106.198 92.25 101.88V93.375H71.75V106.344C71.75 110.198 73.8513 113.523 76.9339 115.313C76.9211 114.916 76.875 114.527 76.875 114.125Z" fill="#CFF09E"/>
<path d="M82 103.75C70.6789 103.75 61.5 94.4592 61.5 83V62.25C66.3021 62.25 70.7865 59.8197 73.4515 55.776L74.3125 54.4688C79.2351 59.4513 85.9104 62.25 92.8727 62.25H102.5V83C102.5 94.4592 93.3211 103.75 82 103.75Z" fill="white"/>
<path d="M92.8727 62.25C85.9129 62.25 79.2351 59.4513 74.3125 54.4688L73.4515 55.776C70.7865 59.8197 66.3021 62.25 61.5 62.25V83C61.5 94.4592 70.6789 103.75 82 103.75C89.6465 103.75 96.3039 99.504 99.8273 93.2194C96.8369 94.9572 93.3852 95.9688 89.6875 95.9688C78.3664 95.9688 69.1875 86.6779 69.1875 75.2188V65.1498C70.8557 64.0786 72.324 62.6754 73.4515 60.9635L74.3125 59.6562C79.2351 64.6388 85.9104 67.4375 92.8727 67.4375H102.5V62.25H92.8727Z" fill="#CFF09E"/>
<path d="M137.094 62.25V67.4375C137.094 70.3036 139.387 72.625 142.219 72.625V77.8125H155.031V64.8438C155.031 60.5459 151.59 57.0625 147.344 57.0625H142.219C139.387 57.0625 137.094 59.3839 137.094 62.25Z" fill="white"/>
<path d="M26.9062 62.25V67.4375C26.9062 70.3036 24.6128 72.625 21.7812 72.625V77.8125H8.96875V64.8438C8.96875 60.5459 12.4102 57.0625 16.6562 57.0625H21.7812C24.6128 57.0625 26.9062 59.3839 26.9062 62.25Z" fill="white"/>
<path d="M102.5 77.8125V62.25H107.625C110.457 62.25 112.75 64.5714 112.75 67.4375C112.75 73.1671 108.161 77.8125 102.5 77.8125Z" fill="white"/>
<path d="M61.5 77.8125C55.8394 77.8125 51.25 73.1671 51.25 67.4375C51.25 64.5714 53.5434 62.25 56.375 62.25H61.5V77.8125Z" fill="white"/>
<path d="M128.125 7.78125L112.75 20.75H120.438V44.0938H135.812V20.75H143.5L128.125 7.78125Z" fill="#79BD9A"/>
<path d="M35.875 7.78125L20.5 20.75H28.1875V44.0938H43.5625V20.75H51.25L35.875 7.78125Z" fill="#79BD9A"/>
<path d="M105.062 62.25H102.5V77.8125C106.564 77.8125 110.044 75.4003 111.702 71.9299C107.83 70.4463 105.062 66.6879 105.062 62.25Z" fill="#CFF09E"/>
<path d="M58.9375 62.25H61.5V77.8125C57.4359 77.8125 53.956 75.4003 52.2981 71.9299C56.17 70.4463 58.9375 66.6879 58.9375 62.25Z" fill="#CFF09E"/>
<path d="M15.375 62.25V57.1922C11.7414 57.8147 8.96875 60.9895 8.96875 64.8438V77.8125H21.7812V72.625C22.3348 72.625 22.8549 72.5135 23.3546 72.3501C18.7908 71.3022 15.375 67.1885 15.375 62.25Z" fill="#CFF09E"/>
<path d="M148.625 62.25V57.1922C148.207 57.1222 147.782 57.0625 147.344 57.0625H142.219C139.387 57.0625 137.094 59.3839 137.094 62.25V67.4375C137.094 70.3036 139.387 72.625 142.219 72.625V77.8125H155.031V71.8547C151.277 70.314 148.625 66.6023 148.625 62.25Z" fill="#CFF09E"/>
<path d="M158.183 76.041C158.014 75.8594 157.801 75.7453 157.594 75.6208V64.8438C157.594 59.1219 152.997 54.4688 147.344 54.4688H142.219C137.98 54.4688 134.531 57.9599 134.531 62.25V67.4375C134.531 70.8198 136.674 73.704 139.656 74.7752V75.6156C138.982 76.0176 138.483 76.692 138.39 77.5272L136.03 99.0268L115.033 103.75H94.8125V102.396C100.988 98.202 105.063 91.0743 105.063 83V80.1443C110.902 78.9382 115.313 73.7014 115.313 67.4375C115.313 64.6155 113.806 62.1644 111.582 60.8001C112.33 58.7744 112.75 56.6371 112.75 54.4688C112.75 43.0277 103.553 33.7188 92.25 33.7188H71.75C60.4468 33.7188 51.25 43.0277 51.25 54.4688C51.25 56.6371 51.6703 58.7744 52.4185 60.8001C50.1943 62.1644 48.6875 64.6155 48.6875 67.4375C48.6875 73.6988 53.0976 78.9382 58.9375 80.1443V83C58.9375 91.0743 63.0119 98.2046 69.1875 102.396V103.75H49.833L27.9672 99.0112L25.6097 77.5272C25.5174 76.6894 25.0152 76.0176 24.3438 75.6156V74.7752C27.3265 73.704 29.4688 70.8198 29.4688 67.4375V62.25C29.4688 57.9599 26.0197 54.4688 21.7813 54.4688H16.6563C11.0034 54.4688 6.40628 59.1219 6.40628 64.8438V75.6208C6.19872 75.7453 5.98347 75.8594 5.81691 76.041C5.33516 76.5649 5.08403 77.2704 5.13016 77.9863L7.00591 106.468C7.49278 113.858 12.2898 120.143 19.2316 122.485L46.125 131.558V158.219C46.125 159.65 47.2705 160.812 48.6875 160.812C50.1046 160.812 51.25 159.65 51.25 158.219V129.688C51.25 128.57 50.5453 127.581 49.4973 127.226L20.8537 117.562C15.8952 115.889 12.4717 111.399 12.1232 106.121L10.4268 80.4062H20.7665L23.0753 101.442C23.1983 102.552 24.0081 103.457 25.0869 103.693L49.0258 108.88C49.2026 108.919 49.382 108.938 49.5639 108.938H69.4463C70.6379 114.849 75.8116 119.312 82 119.312C88.1885 119.312 93.3622 114.849 94.5537 108.938H115.313C115.5 108.938 115.687 108.917 115.869 108.875L138.931 103.688C140.002 103.447 140.799 102.547 140.922 101.442L143.234 80.4062H153.573L151.879 106.123C151.531 111.402 148.105 115.891 143.149 117.564L114.503 127.229C113.455 127.581 112.75 128.57 112.75 129.688V158.219C112.75 159.65 113.895 160.812 115.313 160.812C116.73 160.812 117.875 159.65 117.875 158.219V131.558L144.768 122.485C151.708 120.143 156.505 113.855 156.994 106.468L158.87 77.9863C158.919 77.2704 158.667 76.5649 158.183 76.041ZM11.5313 75.2188V64.8438C11.5313 61.9828 13.8298 59.6562 16.6563 59.6562H21.7813C23.1958 59.6562 24.3438 60.8208 24.3438 62.25V67.4375C24.3438 68.8667 23.1958 70.0312 21.7813 70.0312C20.3642 70.0312 19.2188 71.1932 19.2188 72.625V75.2188H11.5313ZM105.063 74.7752V64.8438H107.625C109.04 64.8438 110.188 66.0083 110.188 67.4375C110.188 70.8198 108.045 73.704 105.063 74.7752ZM71.75 38.9062H92.25C100.729 38.9062 107.625 45.886 107.625 54.4688C107.625 56.2533 107.241 58.0196 106.531 59.6562H92.8702C86.5433 59.6562 80.5983 57.1637 76.1242 52.635C75.5835 52.0877 74.843 51.8127 74.0588 51.888C73.2952 51.9632 72.6059 52.3834 72.1805 53.0292L71.3195 54.3365C69.126 57.6668 65.454 59.6562 61.5 59.6562H57.4692C56.7594 58.0196 56.375 56.2533 56.375 54.4688C56.375 45.886 63.2707 38.9062 71.75 38.9062ZM53.8125 67.4375C53.8125 66.0083 54.9605 64.8438 56.375 64.8438H58.9375V74.7752C55.9548 73.704 53.8125 70.8198 53.8125 67.4375ZM64.0625 83V64.6466C68.2727 63.9982 72.0934 61.765 74.7584 58.362C79.8706 62.5612 86.1974 64.8438 92.8702 64.8438H99.9375V83C99.9375 93.0119 91.8887 101.156 82 101.156C72.1113 101.156 64.0625 93.0119 64.0625 83ZM82 114.125C77.7617 114.125 74.3125 110.634 74.3125 106.344V104.982C76.7213 105.848 79.3017 106.344 82 106.344C84.6983 106.344 87.2788 105.848 89.6875 104.982V106.344C89.6875 110.634 86.2384 114.125 82 114.125ZM144.781 75.2188V72.625C144.781 71.1932 143.636 70.0312 142.219 70.0312C140.804 70.0312 139.656 68.8667 139.656 67.4375V62.25C139.656 60.8208 140.804 59.6562 142.219 59.6562H147.344C150.17 59.6562 152.469 61.9828 152.469 64.8438V75.2188H144.781Z" fill="#3B8686"/>
<path d="M74.3125 80.4062C75.7277 80.4062 76.875 79.245 76.875 77.8125C76.875 76.38 75.7277 75.2188 74.3125 75.2188C72.8973 75.2188 71.75 76.38 71.75 77.8125C71.75 79.245 72.8973 80.4062 74.3125 80.4062Z" fill="#3B8686"/>
<path d="M89.6875 80.4062C91.1027 80.4062 92.25 79.245 92.25 77.8125C92.25 76.38 91.1027 75.2188 89.6875 75.2188C88.2723 75.2188 87.125 76.38 87.125 77.8125C87.125 79.245 88.2723 80.4062 89.6875 80.4062Z" fill="#3B8686"/>
<path d="M71.8911 72.1893C73.3619 71.1959 75.2633 71.1959 76.7367 72.1893C77.1724 72.485 77.6669 72.625 78.1538 72.625C78.9815 72.625 79.7964 72.2204 80.2884 71.4708C81.0751 70.2803 80.7573 68.6669 79.5786 67.8733C76.3806 65.7153 72.2472 65.7153 69.0492 67.8733C67.8705 68.6669 67.5528 70.2777 68.3394 71.4708C69.121 72.6613 70.7072 72.9855 71.8911 72.1893Z" fill="#3B8686"/>
<path d="M87.2661 72.1893C88.7369 71.1959 90.6383 71.1959 92.1118 72.1893C92.5474 72.485 93.0419 72.625 93.5288 72.625C94.3565 72.625 95.1714 72.2204 95.6634 71.4708C96.4501 70.2803 96.1323 68.6669 94.9536 67.8733C91.7556 65.7153 87.6223 65.7153 84.4243 67.8733C83.2455 68.6669 82.9277 70.2777 83.7144 71.4708C84.496 72.6613 86.0848 72.9855 87.2661 72.1893Z" fill="#3B8686"/>
<path d="M72.501 86.3538C71.499 87.3679 71.499 89.0098 72.501 90.0213C75.1198 92.6721 78.5587 93.9975 82.0002 93.9975C85.4416 93.9975 88.8805 92.6721 91.4993 90.0213C92.5013 89.0098 92.5013 87.3679 91.4993 86.3538C90.4974 85.3396 88.8779 85.3396 87.876 86.3538C84.637 89.6323 79.3633 89.6323 76.1243 86.3538C75.1224 85.3396 73.5029 85.3396 72.501 86.3538Z" fill="#3B8686"/>
<path d="M112.75 23.3438H117.875V44.0938C117.875 45.5255 119.02 46.6875 120.438 46.6875H135.813C137.23 46.6875 138.375 45.5255 138.375 44.0938V23.3438H143.5C144.579 23.3438 145.542 22.659 145.909 21.6319C146.275 20.6048 145.968 19.4557 145.14 18.758L129.765 5.78927C128.814 4.9852 127.433 4.9852 126.482 5.78927L111.107 18.758C110.28 19.4583 109.972 20.6048 110.339 21.6319C110.705 22.659 111.671 23.3438 112.75 23.3438ZM128.125 11.1583L136.422 18.1563H135.813C134.395 18.1563 133.25 19.3183 133.25 20.75V41.5H123V20.75C123 19.3183 121.855 18.1563 120.438 18.1563H119.828L128.125 11.1583Z" fill="#3B8686"/>
<path d="M20.5 23.3438H25.625V44.0938C25.625 45.5255 26.7705 46.6875 28.1875 46.6875H43.5625C44.9796 46.6875 46.125 45.5255 46.125 44.0938V23.3438H51.25C52.3288 23.3438 53.2923 22.659 53.6588 21.6319C54.0252 20.6048 53.7177 19.4557 52.89 18.758L37.515 5.78927C36.5643 4.9852 35.1831 4.9852 34.2325 5.78927L18.8575 18.758C18.0298 19.4583 17.7223 20.6048 18.0887 21.6319C18.4551 22.659 19.4212 23.3438 20.5 23.3438ZM35.875 11.1583L44.1724 18.1563H43.5625C42.1455 18.1563 41 19.3183 41 20.75V41.5H30.75V20.75C30.75 19.3183 29.6046 18.1563 28.1875 18.1563H27.5776L35.875 11.1583Z" fill="#3B8686"/>
</g>
</svg>
