<svg width="80" height="80" viewBox="0 0 80 80" fill="none" xmlns="http://www.w3.org/2000/svg">
<g clip-path="url(#clip0_48_135)">
<path fill-rule="evenodd" clip-rule="evenodd" d="M40 0C62.0914 0 80 17.9086 80 40C80 62.0914 62.0914 80 40 80C17.9086 80 0 62.0914 0 40C0 17.9086 17.9086 0 40 0ZM58.5341 18.4938H34.4688L36.7292 23.2825C36.7494 23.3315 36.7843 23.373 36.8291 23.4013C36.8739 23.4297 36.9263 23.4434 36.9792 23.4408H58.8095V18.772C58.8094 18.6988 58.7804 18.6285 58.7288 18.5764C58.6773 18.5244 58.6073 18.4947 58.5341 18.4938ZM40 64.4141C42.6057 64.4142 45.1528 63.6415 47.3194 62.1939C49.4859 60.7463 51.1745 58.6888 52.1716 56.2814C53.1687 53.8741 53.4296 51.2252 52.9212 48.6696C52.4127 46.114 51.1579 43.7666 49.3153 41.9242C47.4727 40.0819 45.1251 38.8273 42.5695 38.3192C40.0139 37.811 37.3649 38.0722 34.9577 39.0696C32.5505 40.067 30.4932 41.7558 29.0458 43.9226C27.5985 46.0893 26.8262 48.6365 26.8266 51.2422C26.8311 54.7345 28.2205 58.0824 30.69 60.5517C33.1596 63.021 36.5077 64.41 40 64.4141ZM61.7164 49.0209V26.5263C61.7156 26.1404 61.5618 25.7706 61.2887 25.4981C61.0156 25.2255 60.6455 25.0724 60.2597 25.0723H36.9784C36.6169 25.0736 36.2625 24.9712 35.9573 24.7774C35.6521 24.5836 35.4088 24.3064 35.2562 23.9786L31.6906 16.4213C31.5771 16.1681 31.3916 15.9539 31.1572 15.8054C30.9228 15.6569 30.6499 15.5807 30.3725 15.5862H19.7408C19.3541 15.5865 18.9833 15.7404 18.71 16.0139C18.4367 16.2874 18.2831 16.6583 18.2831 17.045V49.0209C18.2839 49.4074 18.4378 49.7778 18.7109 50.0511C18.9841 50.3245 19.3543 50.4786 19.7408 50.4797H25.2187C25.4128 46.6903 27.0548 43.1203 29.8056 40.5068C32.5563 37.8933 36.2057 36.4361 40 36.4361C43.7943 36.4361 47.4437 37.8933 50.1944 40.5068C52.9452 43.1203 54.5872 46.6903 54.7813 50.4797H60.2602C60.6465 50.4785 61.0167 50.3244 61.2897 50.051C61.5626 49.7777 61.7163 49.4073 61.7169 49.0209H61.7164ZM45.9739 50.3356C45.9739 50.1198 45.8882 49.9128 45.7356 49.7602C45.583 49.6076 45.376 49.5219 45.1602 49.5219C44.9443 49.5219 44.7374 49.6076 44.5847 49.7602C44.4321 49.9128 44.3464 50.1198 44.3464 50.3356C44.3464 51.4885 43.8884 52.5941 43.0732 53.4093C42.258 54.2245 41.1524 54.6825 39.9995 54.6825C38.8467 54.6825 37.741 54.2245 36.9258 53.4093C36.1106 52.5941 35.6527 51.4885 35.6527 50.3356C35.6497 50.1217 35.5626 49.9176 35.4103 49.7674C35.258 49.6172 35.0527 49.533 34.8388 49.533C34.6249 49.533 34.4196 49.6172 34.2673 49.7674C34.115 49.9176 34.028 50.1217 34.025 50.3356C34.0267 51.779 34.5498 53.1732 35.4981 54.2614C36.4464 55.3496 37.756 56.0585 39.1856 56.2575V58.4503H38.8128C38.5984 58.4533 38.3938 58.5405 38.2433 58.6932C38.0927 58.8458 38.0083 59.0516 38.0083 59.266C38.0083 59.4804 38.0927 59.6862 38.2433 59.8389C38.3938 59.9915 38.5984 60.0788 38.8128 60.0817H41.1875C41.4019 60.0788 41.6065 59.9915 41.757 59.8389C41.9076 59.6862 41.992 59.4804 41.992 59.266C41.992 59.0516 41.9076 58.8458 41.757 58.6932C41.6065 58.5405 41.4019 58.4533 41.1875 58.4503H40.8142V56.2569C42.2438 56.0578 43.5533 55.3489 44.5016 54.2607C45.4499 53.1726 45.9731 51.7784 45.9748 50.335L45.9739 50.3356ZM40 54.2464C41.0369 54.2456 42.031 53.8333 42.7641 53.1C43.4972 52.3668 43.9092 51.3725 43.9097 50.3356V46.3098C43.9097 45.2728 43.4977 44.2782 42.7644 43.5449C42.0311 42.8116 41.0366 42.3997 39.9995 42.3997C38.9625 42.3997 37.9679 42.8116 37.2346 43.5449C36.5013 44.2782 36.0894 45.2728 36.0894 46.3098V50.3356C36.09 51.3726 36.5022 52.3669 37.2354 53.1002C37.9687 53.8335 38.963 54.2457 40 54.2464ZM37.7169 46.3098V50.3356C37.7169 50.9411 37.9574 51.5217 38.3855 51.9498C38.8136 52.3779 39.3942 52.6184 39.9997 52.6184C40.6051 52.6184 41.1858 52.3779 41.6139 51.9498C42.042 51.5217 42.2825 50.9411 42.2825 50.3356V46.3098C42.2813 45.7052 42.0403 45.1258 41.6124 44.6986C41.1845 44.2714 40.6046 44.0314 40 44.0312C39.3954 44.0315 38.8155 44.2715 38.3876 44.6986C37.9597 45.1258 37.7186 45.7052 37.7173 46.3098H37.7169Z" fill="#4CAF50"/>
</g>
<defs>
<clipPath id="clip0_48_135">
<rect width="80" height="80" fill="white"/>
</clipPath>
</defs>
</svg>
