<svg width="50" height="50" viewBox="0 0 50 50" fill="none" xmlns="http://www.w3.org/2000/svg">
<g clip-path="url(#clip0_63_1301)">
<path d="M42.6695 42.675C52.4312 32.9134 52.4312 17.0866 42.6695 7.325C32.9079 -2.43663 17.0812 -2.43663 7.31953 7.325C-2.4421 17.0866 -2.4421 32.9134 7.31953 42.675C17.0812 52.4366 32.9079 52.4366 42.6695 42.675Z" fill="#7FBF94"/>
<path d="M21.7821 33.521H18.9906C18.8735 33.521 18.7612 33.4745 18.6784 33.3917C18.5956 33.3089 18.5491 33.1966 18.5491 33.0795C18.5491 32.9624 18.5956 32.8501 18.6784 32.7673C18.7612 32.6845 18.8735 32.638 18.9906 32.638H21.7821C22.3246 32.638 22.7666 32.1795 22.7666 31.615V31.428C22.7666 30.864 22.3246 30.405 21.7821 30.405C21.665 30.405 21.5527 30.3585 21.4699 30.2757C21.3871 30.1929 21.3406 30.0806 21.3406 29.9635C21.3406 29.8464 21.3871 29.7341 21.4699 29.6513C21.5527 29.5685 21.665 29.522 21.7821 29.522C22.8116 29.522 23.6496 30.377 23.6496 31.428V31.615C23.6501 32.666 22.8116 33.521 21.7821 33.521Z" fill="black"/>
<path d="M21.1001 36.326H18.7501C18.6921 36.326 18.6347 36.3146 18.5811 36.2924C18.5276 36.2702 18.4789 36.2377 18.4379 36.1967C18.3969 36.1557 18.3644 36.107 18.3422 36.0535C18.32 35.9999 18.3086 35.9425 18.3086 35.8845C18.3086 35.8265 18.32 35.7691 18.3422 35.7155C18.3644 35.662 18.3969 35.6133 18.4379 35.5723C18.4789 35.5313 18.5276 35.4988 18.5811 35.4766C18.6347 35.4544 18.6921 35.443 18.7501 35.443H21.1001C21.5176 35.443 21.8571 35.0885 21.8571 34.6535V34.3105C21.8571 33.8755 21.5176 33.521 21.1001 33.521C20.983 33.521 20.8707 33.4745 20.7879 33.3917C20.7051 33.3089 20.6586 33.1966 20.6586 33.0795C20.6586 32.9624 20.7051 32.8501 20.7879 32.7673C20.8707 32.6845 20.983 32.638 21.1001 32.638C22.0046 32.638 22.7401 33.388 22.7401 34.3105V34.6535C22.7391 35.5755 22.0036 36.326 21.1001 36.326Z" fill="black"/>
<path d="M20.4149 27.4135C20.2978 27.4134 20.1856 27.3668 20.1028 27.284C20.0201 27.2013 19.9735 27.0891 19.9734 26.972V19.9365C19.9734 19.8194 20.0199 19.7071 20.1027 19.6243C20.1855 19.5415 20.2978 19.495 20.4149 19.495C20.532 19.495 20.6443 19.5415 20.7271 19.6243C20.8099 19.7071 20.8564 19.8194 20.8564 19.9365V26.972C20.8564 27.03 20.845 27.0874 20.8228 27.141C20.8006 27.1945 20.7681 27.2432 20.7271 27.2842C20.6861 27.3252 20.6374 27.3577 20.5838 27.3799C20.5303 27.4021 20.4729 27.4135 20.4149 27.4135Z" fill="black"/>
<path d="M18.1219 23.139C18.0048 23.139 17.8925 23.0925 17.8097 23.0097C17.7269 22.9269 17.6804 22.8146 17.6804 22.6975V19.9365C17.6804 19.8194 17.7269 19.7071 17.8097 19.6243C17.8925 19.5415 18.0048 19.495 18.1219 19.495C18.239 19.495 18.3513 19.5415 18.4341 19.6243C18.5169 19.7071 18.5634 19.8194 18.5634 19.9365V22.7C18.5628 22.8167 18.516 22.9283 18.4332 23.0106C18.3505 23.0928 18.2386 23.139 18.1219 23.139Z" fill="black"/>
<path d="M23.2615 20.378H14.7195C14.4923 20.3777 14.2745 20.2874 14.1139 20.1267C13.9532 19.966 13.8628 19.7482 13.8625 19.521V12.344C13.8627 12.1167 13.953 11.8987 14.1137 11.738C14.2743 11.5772 14.4923 11.4868 14.7195 11.4865H23.2615C23.4888 11.4868 23.7067 11.5772 23.8674 11.738C24.0281 11.8987 24.1184 12.1167 24.1185 12.344V19.521C24.1183 19.7482 24.0279 19.966 23.8672 20.1267C23.7066 20.2874 23.4888 20.3777 23.2615 20.378ZM14.7455 19.495H23.2355V12.3695H14.7455V19.495Z" fill="black"/>
<path d="M21.7869 30.405H18.3834C18.2663 30.405 18.154 30.3585 18.0712 30.2757C17.9884 30.1929 17.9419 30.0806 17.9419 29.9635C17.9419 29.8464 17.9884 29.7341 18.0712 29.6513C18.154 29.5685 18.2663 29.522 18.3834 29.522H21.7869C22.0625 29.516 22.3249 29.4023 22.5177 29.2052C22.7105 29.0082 22.8185 28.7434 22.8185 28.4677C22.8185 28.1921 22.7105 27.9273 22.5177 27.7303C22.3249 27.5332 22.0625 27.4195 21.7869 27.4135H16.2594C16.1739 27.4133 16.0904 27.3884 16.0188 27.3417C15.9472 27.295 15.8907 27.2286 15.8561 27.1505C15.8215 27.0723 15.8103 26.9858 15.8238 26.9014C15.8374 26.817 15.8751 26.7384 15.9324 26.675L18.0569 24.3355C18.1956 24.1817 18.2721 23.9817 18.2714 23.7745C18.2722 23.6625 18.2501 23.5515 18.2065 23.4484C18.1629 23.3452 18.0987 23.252 18.0179 23.1745C17.8831 23.0415 17.7032 22.964 17.5138 22.9574C17.3245 22.9508 17.1397 23.0156 16.9959 23.139L10.9999 28.1665C10.9555 28.2038 10.9042 28.2319 10.8489 28.2493C10.7936 28.2668 10.7354 28.2731 10.6776 28.2681C10.6199 28.263 10.5637 28.2466 10.5122 28.2198C10.4608 28.1931 10.4152 28.1564 10.3779 28.112C10.3407 28.0676 10.3125 28.0163 10.2951 27.961C10.2776 27.9057 10.2713 27.8475 10.2763 27.7897C10.2814 27.732 10.2978 27.6758 10.3246 27.6243C10.3513 27.5729 10.388 27.5273 10.4324 27.49L16.4284 22.461C16.7396 22.1996 17.1365 22.0626 17.5427 22.0764C17.9489 22.0901 18.3356 22.2537 18.6284 22.5355C18.9497 22.846 19.1378 23.2692 19.153 23.7158C19.1682 24.1623 19.0093 24.5973 18.7099 24.929L17.2559 26.529H21.7864C22.2948 26.5372 22.7796 26.7449 23.1363 27.1073C23.4929 27.4697 23.6928 27.9578 23.6928 28.4663C23.6928 28.9747 23.4929 29.4628 23.1363 29.8252C22.7796 30.1876 22.2948 30.3953 21.7864 30.4035L21.7869 30.405Z" fill="black"/>
<path d="M18.891 38.5135H13.791C12.6252 38.5136 11.4818 38.1937 10.4855 37.5885C10.3892 37.5258 10.3212 37.4281 10.2957 37.3162C10.2702 37.2042 10.2893 37.0866 10.349 36.9885C10.4087 36.8904 10.5042 36.8193 10.6153 36.7904C10.7265 36.7614 10.8445 36.7769 10.9445 36.8335C11.8023 37.355 12.787 37.6307 13.791 37.6305H18.891C19.048 37.63 19.1987 37.5687 19.3115 37.4595C19.4365 37.3371 19.5091 37.1708 19.5138 36.9958C19.5184 36.8208 19.4548 36.6509 19.3365 36.522C19.2798 36.4602 19.211 36.4109 19.1343 36.3772C19.0576 36.3434 18.9748 36.326 18.891 36.326H18.5825C18.4654 36.326 18.3531 36.2795 18.2703 36.1967C18.1875 36.1139 18.141 36.0016 18.141 35.8845C18.141 35.7674 18.1875 35.6551 18.2703 35.5723C18.3531 35.4895 18.4654 35.443 18.5825 35.443H18.891C19.0959 35.4425 19.2987 35.4846 19.4865 35.5666C19.6744 35.6486 19.8431 35.7688 19.982 35.9195C20.1265 36.0753 20.2376 36.259 20.3084 36.4594C20.3792 36.6597 20.4081 36.8725 20.3935 37.0845C20.3687 37.4692 20.2005 37.8305 19.922 38.097C19.6453 38.3643 19.2756 38.5136 18.891 38.5135Z" fill="black"/>
<path d="M10.1525 38.429H8.5055C8.23891 38.4287 7.98331 38.3227 7.7948 38.1342C7.60629 37.9457 7.50026 37.6901 7.5 37.4235V27.6065C7.5 27.3397 7.6059 27.0839 7.79444 26.8952C7.98298 26.7064 8.23873 26.6003 8.5055 26.6H10.1525C10.4191 26.6003 10.6747 26.7063 10.8632 26.8948C11.0517 27.0833 11.1577 27.3389 11.158 27.6055V37.4235C11.1577 37.6901 11.0517 37.9457 10.8632 38.1342C10.6747 38.3227 10.4191 38.4287 10.1525 38.429ZM8.5055 27.484C8.47313 27.4844 8.4422 27.4974 8.41931 27.5203C8.39642 27.5432 8.38339 27.5741 8.383 27.6065V37.4235C8.38339 37.4559 8.39642 37.4868 8.41931 37.5097C8.4422 37.5326 8.47313 37.5456 8.5055 37.546H10.1525C10.1849 37.5456 10.2158 37.5326 10.2387 37.5097C10.2616 37.4868 10.2746 37.4559 10.275 37.4235V27.6065C10.2746 27.5741 10.2616 27.5432 10.2387 27.5203C10.2158 27.4974 10.1849 27.4844 10.1525 27.484H8.5055Z" fill="black"/>
<path d="M17.6681 18.0735H17.6356C17.5761 18.0691 17.5182 18.0528 17.4652 18.0253C17.4123 17.9979 17.3655 17.96 17.3276 17.914L16.2001 16.5455C16.1625 16.5009 16.1341 16.4492 16.1166 16.3936C16.099 16.3379 16.0927 16.2793 16.098 16.2212C16.1032 16.163 16.12 16.1065 16.1472 16.0549C16.1745 16.0033 16.2117 15.9576 16.2567 15.9204C16.3017 15.8833 16.3536 15.8554 16.4095 15.8385C16.4653 15.8215 16.524 15.8158 16.582 15.8217C16.6401 15.8276 16.6964 15.8449 16.7478 15.8727C16.7991 15.9004 16.8444 15.9381 16.8811 15.9835L17.7166 16.9955L21.1491 13.9045C21.1921 13.865 21.2424 13.8345 21.2973 13.8146C21.3521 13.7947 21.4104 13.7859 21.4686 13.7887C21.5269 13.7914 21.584 13.8057 21.6368 13.8307C21.6895 13.8556 21.7367 13.8908 21.7758 13.9341C21.8148 13.9775 21.8449 14.0281 21.8642 14.0832C21.8836 14.1382 21.8919 14.1965 21.8885 14.2548C21.8852 14.313 21.8704 14.37 21.8449 14.4225C21.8194 14.475 21.7838 14.5219 21.7401 14.5605L17.9651 17.9605C17.8837 18.0339 17.7777 18.0742 17.6681 18.0735Z" fill="black"/>
<path d="M31.0096 33.521H28.2181C27.1886 33.521 26.3506 32.666 26.3506 31.615V31.428C26.3506 30.378 27.1886 29.522 28.2181 29.522C28.3352 29.522 28.4475 29.5685 28.5303 29.6513C28.6131 29.7341 28.6596 29.8464 28.6596 29.9635C28.6596 30.0806 28.6131 30.1929 28.5303 30.2757C28.4475 30.3585 28.3352 30.405 28.2181 30.405C27.6756 30.405 27.2336 30.864 27.2336 31.428V31.615C27.2336 32.1795 27.6756 32.638 28.2181 32.638H31.0096C31.1267 32.638 31.239 32.6845 31.3218 32.7673C31.4046 32.8501 31.4511 32.9624 31.4511 33.0795C31.4511 33.1966 31.4046 33.3089 31.3218 33.3917C31.239 33.4745 31.1267 33.521 31.0096 33.521Z" fill="black"/>
<path d="M31.2525 36.326H28.9C27.9955 36.326 27.26 35.576 27.26 34.6535V34.3105C27.26 33.3885 27.9955 32.638 28.9 32.638C29.0171 32.638 29.1294 32.6845 29.2122 32.7673C29.295 32.8501 29.3415 32.9624 29.3415 33.0795C29.3415 33.1966 29.295 33.3089 29.2122 33.3917C29.1294 33.4745 29.0171 33.521 28.9 33.521C28.4825 33.521 28.143 33.8755 28.143 34.3105V34.6535C28.143 35.0885 28.4825 35.443 28.9 35.443H31.25C31.3671 35.443 31.4794 35.4895 31.5622 35.5723C31.645 35.6551 31.6915 35.7674 31.6915 35.8845C31.6915 36.0016 31.645 36.1139 31.5622 36.1967C31.4794 36.2795 31.3671 36.326 31.25 36.326H31.2525Z" fill="black"/>
<path d="M29.8741 27.4135C29.7571 27.4134 29.6448 27.3668 29.5621 27.284C29.4793 27.2013 29.4327 27.0891 29.4326 26.972V19.9365C29.4326 19.8785 29.444 19.8211 29.4662 19.7675C29.4884 19.714 29.5209 19.6653 29.5619 19.6243C29.6029 19.5833 29.6516 19.5508 29.7052 19.5286C29.7587 19.5064 29.8161 19.495 29.8741 19.495C29.9321 19.495 29.9895 19.5064 30.0431 19.5286C30.0966 19.5508 30.1453 19.5833 30.1863 19.6243C30.2273 19.6653 30.2598 19.714 30.282 19.7675C30.3042 19.8211 30.3156 19.8785 30.3156 19.9365V26.972C30.3156 27.03 30.3042 27.0874 30.282 27.141C30.2598 27.1945 30.2273 27.2432 30.1863 27.2842C30.1453 27.3252 30.0966 27.3577 30.0431 27.3799C29.9895 27.4021 29.9321 27.4135 29.8741 27.4135Z" fill="black"/>
<path d="M31.878 23.139C31.7609 23.139 31.6486 23.0925 31.5658 23.0097C31.483 22.9269 31.4365 22.8146 31.4365 22.6975V19.9365C31.4365 19.8194 31.483 19.7071 31.5658 19.6243C31.6486 19.5415 31.7609 19.495 31.878 19.495C31.9951 19.495 32.1074 19.5415 32.1902 19.6243C32.273 19.7071 32.3195 19.8194 32.3195 19.9365V22.7C32.3189 22.8167 32.2721 22.9283 32.1893 23.0106C32.1066 23.0928 31.9947 23.139 31.878 23.139Z" fill="black"/>
<path d="M35.2159 20.378H26.6739C26.4467 20.3777 26.2289 20.2874 26.0682 20.1267C25.9075 19.966 25.8172 19.7482 25.8169 19.521V12.344C25.817 12.1167 25.9073 11.8987 26.068 11.738C26.2287 11.5772 26.4466 11.4868 26.6739 11.4865H35.2159C35.4432 11.4868 35.6611 11.5772 35.8218 11.738C35.9824 11.8987 36.0728 12.1167 36.0729 12.344V19.521C36.0726 19.7482 35.9823 19.966 35.8216 20.1267C35.6609 20.2874 35.4431 20.3777 35.2159 20.378ZM26.6999 19.495H35.1899V12.3695H26.6999V19.495Z" fill="black"/>
<path d="M31.6165 30.405H28.213C27.7046 30.3968 27.2198 30.1891 26.8632 29.8267C26.5065 29.4643 26.3066 28.9762 26.3066 28.4677C26.3066 27.9593 26.5065 27.4712 26.8632 27.1088C27.2198 26.7464 27.7046 26.5387 28.213 26.5305H32.7435L31.2895 24.9305C30.99 24.5987 30.8311 24.1636 30.8464 23.7169C30.8617 23.2702 31.05 22.847 31.3715 22.5365C31.6644 22.2547 32.0512 22.0913 32.4573 22.0776C32.8635 22.064 33.2604 22.2011 33.5715 22.4625L39.5675 27.49C39.6572 27.5653 39.7134 27.6731 39.7236 27.7897C39.7338 27.9064 39.6973 28.0223 39.622 28.112C39.5848 28.1564 39.5391 28.1931 39.4877 28.2198C39.4363 28.2466 39.3801 28.263 39.3223 28.2681C39.2057 28.2783 39.0897 28.2418 39 28.1665L33.004 23.1375C32.8604 23.0142 32.6756 22.9494 32.4864 22.9559C32.2972 22.9623 32.1174 23.0397 31.9825 23.1725C31.9016 23.25 31.8374 23.3432 31.7937 23.4463C31.75 23.5495 31.7278 23.6605 31.7285 23.7725C31.7278 23.9797 31.8043 24.1797 31.943 24.3335L34.0675 26.673C34.1248 26.7364 34.1626 26.815 34.1761 26.8994C34.1897 26.9838 34.1785 27.0703 34.1439 27.1485C34.1093 27.2266 34.0528 27.293 33.9812 27.3397C33.9096 27.3864 33.826 27.4113 33.7405 27.4115H28.213C27.9374 27.4175 27.6751 27.5312 27.4823 27.7283C27.2894 27.9253 27.1815 28.1901 27.1815 28.4657C27.1815 28.7414 27.2894 29.0062 27.4823 29.2032C27.6751 29.4003 27.9374 29.514 28.213 29.52H31.6165C31.7336 29.52 31.8459 29.5665 31.9287 29.6493C32.0115 29.7321 32.058 29.8444 32.058 29.9615C32.058 30.0786 32.0115 30.1909 31.9287 30.2737C31.8459 30.3565 31.7336 30.403 31.6165 30.403V30.405Z" fill="black"/>
<path d="M36.2075 38.5135H31.1075C30.7227 38.5135 30.353 38.3641 30.076 38.097C29.7832 37.814 29.613 37.4275 29.6019 37.0204C29.5908 36.6133 29.7396 36.2181 30.0165 35.9195C30.1554 35.7688 30.3241 35.6486 30.512 35.5666C30.6998 35.4846 30.9026 35.4425 31.1075 35.443H31.416C31.5331 35.443 31.6454 35.4895 31.7282 35.5723C31.811 35.6551 31.8575 35.7674 31.8575 35.8845C31.8575 36.0016 31.811 36.1139 31.7282 36.1967C31.6454 36.2795 31.5331 36.326 31.416 36.326H31.1075C31.0237 36.326 30.9409 36.3434 30.8642 36.3772C30.7875 36.4109 30.7187 36.4602 30.662 36.522C30.5437 36.6508 30.4802 36.8206 30.4847 36.9955C30.4893 37.1703 30.5617 37.3365 30.6865 37.459C30.7994 37.5685 30.9503 37.63 31.1075 37.6305H36.2075C37.2115 37.6307 38.1962 37.355 39.054 36.8335C39.1036 36.8012 39.1592 36.7792 39.2175 36.7688C39.2758 36.7584 39.3356 36.7598 39.3933 36.7729C39.451 36.786 39.5055 36.8106 39.5535 36.8452C39.6016 36.8798 39.6422 36.9237 39.6729 36.9743C39.7037 37.0249 39.7239 37.0811 39.7325 37.1397C39.7411 37.1982 39.7379 37.2579 39.723 37.3152C39.7081 37.3725 39.6818 37.4262 39.6457 37.4732C39.6097 37.5201 39.5645 37.5593 39.513 37.5885C38.5167 38.1937 37.3733 38.5136 36.2075 38.5135Z" fill="black"/>
<path d="M41.4945 38.429H39.85C39.5834 38.4287 39.3278 38.3227 39.1393 38.1342C38.9508 37.9457 38.8447 37.6901 38.8445 37.4235V27.6065C38.8445 27.3397 38.9504 27.0839 39.1389 26.8952C39.3275 26.7064 39.5832 26.6003 39.85 26.6H41.497C41.7633 26.6009 42.0184 26.7074 42.2064 26.896C42.3944 27.0847 42.5 27.3402 42.5 27.6065V37.4235C42.4997 37.6901 42.3937 37.9457 42.2052 38.1342C42.0167 38.3227 41.7611 38.4287 41.4945 38.429ZM39.85 27.484C39.8176 27.4844 39.7867 27.4974 39.7638 27.5203C39.7409 27.5432 39.7279 27.5741 39.7275 27.6065V37.4235C39.7279 37.4559 39.7409 37.4868 39.7638 37.5097C39.7867 37.5326 39.8176 37.5456 39.85 37.546H41.497C41.5293 37.5456 41.5603 37.5326 41.5832 37.5097C41.6061 37.4868 41.6191 37.4559 41.6195 37.4235V27.6065C41.6191 27.5741 41.6061 27.5432 41.5832 27.5203C41.5603 27.4974 41.5293 27.4844 41.497 27.484H39.85Z" fill="black"/>
<path d="M29.2329 18.086C29.1456 18.0859 29.0603 18.0599 28.9877 18.0114C28.9152 17.9628 28.8586 17.8939 28.8252 17.8132C28.7918 17.7326 28.783 17.6438 28.7999 17.5582C28.8169 17.4725 28.8588 17.3938 28.9204 17.332L32.3444 13.908C32.3854 13.867 32.4341 13.8345 32.4877 13.8123C32.5413 13.7901 32.5987 13.7787 32.6567 13.7787C32.7147 13.7787 32.7721 13.7901 32.8257 13.8123C32.8792 13.8345 32.9279 13.867 32.9689 13.908C33.0099 13.949 33.0425 13.9977 33.0646 14.0513C33.0868 14.1048 33.0983 14.1623 33.0983 14.2202C33.0983 14.2782 33.0868 14.3357 33.0646 14.3892C33.0425 14.4428 33.0099 14.4915 32.9689 14.5325L29.5449 17.9565C29.504 17.9976 29.4554 18.0301 29.4018 18.0523C29.3483 18.0746 29.2909 18.086 29.2329 18.086Z" fill="black"/>
<path d="M32.6571 18.086C32.5399 18.0859 32.4275 18.0394 32.3446 17.9565L28.9206 14.5325C28.8796 14.4915 28.8471 14.4428 28.8249 14.3892C28.8027 14.3357 28.7913 14.2782 28.7913 14.2202C28.7913 14.1623 28.8027 14.1048 28.8249 14.0513C28.8471 13.9977 28.8796 13.949 28.9206 13.908C28.9616 13.867 29.0103 13.8345 29.0639 13.8123C29.1174 13.7901 29.1749 13.7787 29.2328 13.7787C29.2908 13.7787 29.3483 13.7901 29.4018 13.8123C29.4554 13.8345 29.5041 13.867 29.5451 13.908L32.9691 17.332C33.0307 17.3938 33.0726 17.4725 33.0896 17.5581C33.1065 17.6437 33.0978 17.7324 33.0644 17.813C33.0311 17.8936 32.9746 17.9626 32.9021 18.0112C32.8296 18.0597 32.7444 18.0858 32.6571 18.086Z" fill="black"/>
</g>
<defs>
<clipPath id="clip0_63_1301">
<rect width="50" height="50" fill="white"/>
</clipPath>
</defs>
</svg>
